<svg width="140" height="149" viewBox="0 0 140 716" fill="none" xmlns="http://www.w3.org/2000/svg">
<path d="M70.1838 7.77441H83.1032L54.8782 42.1703L88.0827 88.9754H62.0838L41.7206 60.5884L18.4205 88.9754H5.49333L35.6827 52.1851L3.82959 7.77441H30.4884L48.895 33.7213L70.1838 7.77441ZM65.6495 80.7304H72.8083L26.5986 15.5864H18.9165L65.6495 80.7304Z" fill="white"/>
<g clip-path="url(#clip0_0_1)">
<path d="M118.3 296.799C109.393 292.442 99.8415 289.231 89.8551 287.392C89.6732 287.357 89.4915 287.446 89.3978 287.623C88.1695 289.953 86.8088 292.991 85.856 295.38C75.115 293.666 64.4291 293.666 53.9083 295.38C52.9553 292.938 51.5452 289.953 50.3113 287.623C50.2176 287.452 50.036 287.363 49.8541 287.392C39.8732 289.225 30.322 292.436 21.4096 296.799C21.3325 296.835 21.2663 296.894 21.2225 296.971C3.10577 325.829 -1.85715 353.978 0.577494 381.779C0.588511 381.915 0.660117 382.045 0.759266 382.127C12.7121 391.487 24.2905 397.169 35.6539 400.935C35.8358 400.994 36.0285 400.923 36.1442 400.763C38.8322 396.85 41.2283 392.723 43.2828 388.383C43.404 388.129 43.2883 387.827 43.0405 387.727C39.2398 386.189 35.6208 384.315 32.1396 382.187C31.8643 382.015 31.8422 381.595 32.0956 381.394C32.8281 380.809 33.5609 380.2 34.2604 379.585C34.387 379.473 34.5633 379.449 34.7121 379.52C57.5822 390.653 82.3417 390.653 104.942 379.52C105.091 379.443 105.267 379.467 105.399 379.579C106.099 380.194 106.831 380.809 107.57 381.394C107.823 381.595 107.806 382.015 107.531 382.187C104.05 384.356 100.431 386.189 96.6246 387.721C96.3768 387.821 96.2666 388.129 96.3878 388.383C98.4863 392.717 100.882 396.843 103.521 400.758C103.631 400.923 103.829 400.994 104.011 400.935C115.43 397.169 127.008 391.487 138.961 382.127C139.066 382.045 139.132 381.921 139.143 381.785C142.056 349.644 134.262 321.726 118.481 296.976C118.443 296.894 118.377 296.835 118.3 296.799ZM46.6981 364.851C39.8126 364.851 34.1392 358.111 34.1392 349.834C34.1392 341.556 39.7026 334.816 46.6981 334.816C53.7485 334.816 59.367 341.615 59.2567 349.834C59.2567 358.111 53.6933 364.851 46.6981 364.851ZM93.1324 364.851C86.2471 364.851 80.5737 358.111 80.5737 349.834C80.5737 341.556 86.1369 334.816 93.1324 334.816C100.183 334.816 105.801 341.615 105.691 349.834C105.691 358.111 100.183 364.851 93.1324 364.851Z" fill="#5865F2"/>
</g>
<g clip-path="url(#clip1_0_1)">
<path d="M69.8722 716C108.462 716 139.744 682.645 139.744 641.5C139.744 600.355 108.462 567 69.8722 567C31.2829 567 0 600.355 0 641.5C0 682.645 31.2829 716 69.8722 716Z" fill="url(#paint0_linear_0_1)"/>
<path fill-rule="evenodd" clip-rule="evenodd" d="M31.6281 640.714C51.9972 631.251 65.5799 625.013 72.376 621.999C91.7802 613.394 95.8123 611.899 98.4403 611.85C99.0183 611.839 100.311 611.992 101.148 612.716C101.855 613.327 102.049 614.154 102.142 614.733C102.235 615.313 102.351 616.634 102.259 617.666C101.208 629.446 96.6577 658.034 94.3429 671.228C93.3635 676.811 91.4349 678.683 89.5678 678.866C85.5102 679.264 82.429 676.007 78.499 673.26C72.3494 668.962 68.8752 666.286 62.9059 662.092C56.0073 657.245 60.4794 654.581 64.4108 650.227C65.4397 649.087 83.3177 631.749 83.6637 630.176C83.707 629.979 83.7471 629.246 83.3386 628.859C82.93 628.472 82.327 628.604 81.8919 628.71C81.2751 628.859 71.4509 635.782 52.4194 649.48C49.6308 651.522 47.105 652.516 44.842 652.464C42.3472 652.407 37.5482 650.96 33.9807 649.724C29.6049 648.207 26.1272 647.405 26.43 644.83C26.5877 643.488 28.3204 642.116 31.6281 640.714Z" fill="white"/>
</g>
<defs>
<linearGradient id="paint0_linear_0_1" x1="69.8722" y1="567" x2="69.8722" y2="714.895" gradientUnits="userSpaceOnUse">
<stop stop-color="#2AABEE"/>
<stop offset="1" stop-color="#229ED9"/>
</linearGradient>
<clipPath id="clip0_0_1">
<rect width="139.744" height="149" fill="white" transform="translate(0 271)"/>
</clipPath>
<clipPath id="clip1_0_1">
<rect width="139.744" height="149" fill="white" transform="translate(0 567)"/>
</clipPath>
</defs>
</svg>
