
<svg width="370" height="149" viewBox="0 0 982 149" fill="none" xmlns="http://www.w3.org/2000/svg">
<a href="https://x.xom">
<path d="M74.8323 33.7744H88.6074L58.513 68.1703L93.9167 114.975H66.1959L44.484 86.5884L19.6406 114.975H5.85726L38.0462 78.1851L4.08333 33.7744H32.5079L52.1335 59.7213L74.8323 33.7744ZM69.9978 106.73H77.6307L28.3604 41.5864H20.1695L69.9978 106.73Z" fill="white"/>
</a>

<g clip-path="url(#clip0_115_235)">
<path d="M517.135 25.7992C507.638 21.4416 497.454 18.2312 486.806 16.3925C486.612 16.357 486.419 16.4457 486.319 16.623C485.009 18.9525 483.558 21.9915 482.542 24.3801C471.09 22.6655 459.696 22.6655 448.479 24.3801C447.463 21.9384 445.959 18.9525 444.644 16.623C444.544 16.4516 444.35 16.3629 444.156 16.3925C433.514 18.2253 423.33 21.4358 413.828 25.7992C413.745 25.8346 413.675 25.8938 413.628 25.9706C394.311 54.8292 389.02 82.9784 391.616 110.779C391.627 110.915 391.704 111.045 391.81 111.127C404.554 120.487 416.899 126.169 429.015 129.935C429.209 129.994 429.415 129.923 429.538 129.763C432.404 125.85 434.959 121.723 437.149 117.383C437.279 117.129 437.155 116.827 436.891 116.727C432.839 115.189 428.98 113.315 425.268 111.187C424.975 111.015 424.951 110.595 425.221 110.394C426.002 109.809 426.784 109.2 427.53 108.585C427.664 108.473 427.853 108.449 428.011 108.52C452.396 119.653 478.795 119.653 502.893 108.52C503.051 108.443 503.239 108.467 503.38 108.579C504.126 109.194 504.907 109.809 505.694 110.394C505.964 110.595 505.947 111.015 505.653 111.187C501.941 113.356 498.083 115.189 494.024 116.721C493.76 116.821 493.643 117.129 493.772 117.383C496.009 121.717 498.564 125.843 501.377 129.758C501.495 129.923 501.706 129.994 501.9 129.935C514.075 126.169 526.42 120.487 539.165 111.127C539.276 111.045 539.347 110.921 539.358 110.785C542.465 78.6444 534.155 50.726 517.328 25.9765C517.287 25.8938 517.217 25.8346 517.135 25.7992ZM440.791 93.8512C433.449 93.8512 427.4 87.1112 427.4 78.8337C427.4 70.5562 433.332 63.8162 440.791 63.8162C448.308 63.8162 454.299 70.6154 454.181 78.8337C454.181 87.1112 448.25 93.8512 440.791 93.8512ZM490.301 93.8512C482.959 93.8512 476.91 87.1112 476.91 78.8337C476.91 70.5562 482.842 63.8162 490.301 63.8162C497.818 63.8162 503.809 70.6154 503.691 78.8337C503.691 87.1112 497.818 93.8512 490.301 93.8512Z" fill="#5865F2"/>
</g>
<g clip-path="url(#clip1_115_235)">
<path d="M907.5 149C948.645 149 982 115.645 982 74.5C982 33.3548 948.645 0 907.5 0C866.355 0 833 33.3548 833 74.5C833 115.645 866.355 149 907.5 149Z" fill="url(#paint0_linear_115_235)"/>
<path fill-rule="evenodd" clip-rule="evenodd" d="M866.723 73.7137C888.441 64.2514 902.923 58.0133 910.17 54.9993C930.859 46.3939 935.158 44.899 937.96 44.8496C938.577 44.8388 939.955 44.9915 940.847 45.7158C941.601 46.3274 941.808 47.1535 941.907 47.7334C942.007 48.3132 942.13 49.6341 942.032 50.6662C940.911 62.4464 936.06 91.0338 933.592 104.228C932.547 109.811 930.491 111.683 928.5 111.866C924.174 112.264 920.889 109.007 916.698 106.26C910.141 101.962 906.437 99.2861 900.072 95.0919C892.717 90.2447 897.485 87.5806 901.677 83.2268C902.774 82.0874 921.836 64.749 922.205 63.1761C922.251 62.9794 922.294 62.2462 921.858 61.859C921.423 61.4718 920.78 61.6042 920.316 61.7095C919.658 61.8588 909.183 68.7823 888.891 82.4799C885.918 84.5216 883.225 85.5164 880.812 85.4642C878.152 85.4068 873.035 83.9602 869.231 82.7237C864.566 81.2071 860.858 80.4053 861.181 77.8297C861.349 76.4881 863.196 75.1161 866.723 73.7137Z" fill="white"/>
</g>
<defs>
<linearGradient id="paint0_linear_115_235" x1="907.5" y1="0" x2="907.5" y2="147.895" gradientUnits="userSpaceOnUse">
<stop stop-color="#2AABEE"/>
<stop offset="1" stop-color="#229ED9"/>
</linearGradient>
<clipPath id="clip0_115_235">
<rect width="149" height="149" fill="white" transform="translate(391)"/>
</clipPath>
<clipPath id="clip1_115_235">
<rect width="149" height="149" fill="white" transform="translate(833)"/>
</clipPath>
</defs>
</svg>
