<svg width="1100" height="410" viewBox="0 0 3342 579" fill="none" xmlns="http://www.w3.org/2000/svg" xmlns:xlink="http://www.w3.org/1999/xlink">
<rect x="2666" width="676" height="309" fill="url(#pattern0_149_21)"/>
<path d="M1108.67 374V408.56H1077.35V509H1034.15V408.56H1002.83V374H1108.67ZM1114 441.68C1114 429.32 1115.02 418.7 1117.06 409.82C1119.22 400.82 1122.76 393.44 1127.68 387.68C1132.72 381.92 1139.32 377.66 1147.48 374.9C1155.64 372.14 1165.72 370.76 1177.72 370.76C1189.84 370.76 1199.92 372.14 1207.96 374.9C1216.12 377.66 1222.66 381.92 1227.58 387.68C1232.62 393.44 1236.16 400.82 1238.2 409.82C1240.36 418.7 1241.44 429.32 1241.44 441.68C1241.44 453.44 1240.48 463.76 1238.56 472.64C1236.64 481.4 1233.22 488.72 1228.3 494.6C1223.5 500.48 1216.96 504.92 1208.68 507.92C1200.52 510.8 1190.2 512.24 1177.72 512.24C1165.24 512.24 1154.86 510.8 1146.58 507.92C1138.42 504.92 1131.88 500.48 1126.96 494.6C1122.16 488.72 1118.8 481.4 1116.88 472.64C1114.96 463.76 1114 453.44 1114 441.68ZM1160.44 419.18V475.34H1178.44C1184.44 475.34 1188.7 474.68 1191.22 473.36C1193.86 471.92 1195.18 468.74 1195.18 463.82V407.66H1177C1171.24 407.66 1167.04 408.38 1164.4 409.82C1161.76 411.14 1160.44 414.26 1160.44 419.18ZM1300.64 450.32H1299.74V509H1256.54V374H1299.74V429.08H1300.64C1300.76 426.92 1301 425 1301.36 423.32C1301.72 421.52 1302.2 419.96 1302.8 418.64L1323.86 374H1370.66L1338.26 440.24L1371.74 509H1324.94L1302.8 460.58C1302.2 459.26 1301.72 457.76 1301.36 456.08C1301 454.4 1300.76 452.48 1300.64 450.32ZM1471.08 426.74V458.06H1427.88V474.44H1480.8V509H1384.68V374H1479.72L1474.32 408.56H1427.88V426.74H1471.08ZM1619 509H1578.32L1545.38 461.12C1544.78 460.28 1544.3 459.02 1543.94 457.34C1543.58 455.66 1543.34 453.44 1543.22 450.68H1542.32V509H1499.12V374H1539.8L1572.74 421.88C1573.34 422.72 1573.82 423.98 1574.18 425.66C1574.54 427.34 1574.78 429.56 1574.9 432.32H1575.8V374H1619V509ZM1634.14 441.68C1634.14 429.32 1635.16 418.7 1637.2 409.82C1639.36 400.82 1642.9 393.44 1647.82 387.68C1652.86 381.92 1659.46 377.66 1667.62 374.9C1675.78 372.14 1685.86 370.76 1697.86 370.76C1709.98 370.76 1720.06 372.14 1728.1 374.9C1736.26 377.66 1742.8 381.92 1747.72 387.68C1752.76 393.44 1756.3 400.82 1758.34 409.82C1760.5 418.7 1761.58 429.32 1761.58 441.68C1761.58 453.44 1760.62 463.76 1758.7 472.64C1756.78 481.4 1753.36 488.72 1748.44 494.6C1743.64 500.48 1737.1 504.92 1728.82 507.92C1720.66 510.8 1710.34 512.24 1697.86 512.24C1685.38 512.24 1675 510.8 1666.72 507.92C1658.56 504.92 1652.02 500.48 1647.1 494.6C1642.3 488.72 1638.94 481.4 1637.02 472.64C1635.1 463.76 1634.14 453.44 1634.14 441.68ZM1680.58 419.18V475.34H1698.58C1704.58 475.34 1708.84 474.68 1711.36 473.36C1714 471.92 1715.32 468.74 1715.32 463.82V407.66H1697.14C1691.38 407.66 1687.18 408.38 1684.54 409.82C1681.9 411.14 1680.58 414.26 1680.58 419.18ZM1818.98 443.48L1816.46 509H1771.28L1779.56 374H1835.9L1852.64 442.76H1854.26L1871 374H1927.52L1935.62 509H1890.44L1887.92 443.48H1886.48L1869.92 509H1836.98L1820.24 443.48H1818.98ZM1994.95 509H1951.75V374H1994.95V509ZM2106.26 470.3L2109.5 506.66C2100.26 510.38 2088.86 512.24 2075.3 512.24C2062.46 512.24 2051.84 510.86 2043.44 508.1C2035.04 505.22 2028.38 500.9 2023.46 495.14C2018.54 489.38 2015.06 482.06 2013.02 473.18C2011.1 464.3 2010.14 453.8 2010.14 441.68C2010.14 429.92 2011.04 419.66 2012.84 410.9C2014.76 402.02 2018.12 394.64 2022.92 388.76C2027.72 382.76 2034.2 378.26 2042.36 375.26C2050.64 372.26 2061.08 370.76 2073.68 370.76C2076.44 370.76 2079.5 370.94 2082.86 371.3C2086.34 371.54 2089.7 371.9 2092.94 372.38C2096.3 372.86 2099.42 373.46 2102.3 374.18C2105.3 374.78 2107.7 375.5 2109.5 376.34L2103.02 409.46C2093.42 407.42 2084.84 406.4 2077.28 406.4C2069.48 406.4 2064.08 407.12 2061.08 408.56C2058.08 410 2056.58 412.88 2056.58 417.2V473.72C2059.34 474.32 2062.1 474.8 2064.86 475.16C2067.74 475.4 2070.68 475.52 2073.68 475.52C2085.68 475.52 2096.54 473.78 2106.26 470.3ZM2119.15 506.66L2125.27 471.02C2138.47 474.26 2150.41 475.88 2161.09 475.88C2166.49 475.88 2171.23 475.82 2175.31 475.7C2179.51 475.46 2183.23 475.1 2186.47 474.62V463.82L2167.03 462.2C2158.27 461.36 2150.95 459.92 2145.07 457.88C2139.19 455.84 2134.45 453.08 2130.85 449.6C2127.37 446 2124.85 441.74 2123.29 436.82C2121.85 431.78 2121.13 425.9 2121.13 419.18C2121.13 409.94 2122.09 402.26 2124.01 396.14C2125.93 389.9 2128.99 384.92 2133.19 381.2C2137.39 377.36 2142.79 374.66 2149.39 373.1C2156.11 371.54 2164.27 370.76 2173.87 370.76C2192.95 370.76 2210.23 372.56 2225.71 376.16L2220.31 410.72C2206.87 408.56 2196.13 407.48 2188.09 407.48C2180.05 407.48 2173.21 407.84 2167.57 408.56V419.18L2183.05 420.62C2192.53 421.58 2200.45 423.2 2206.81 425.48C2213.17 427.64 2218.27 430.52 2222.11 434.12C2226.07 437.72 2228.83 441.98 2230.39 446.9C2232.07 451.82 2232.91 457.46 2232.91 463.82C2232.91 472.94 2231.71 480.62 2229.31 486.86C2226.91 493.1 2224.03 497.84 2220.67 501.08C2217.91 503.72 2214.49 505.82 2210.41 507.38C2206.33 508.82 2202.01 509.9 2197.45 510.62C2192.89 511.34 2188.27 511.76 2183.59 511.88C2179.03 512.12 2174.89 512.24 2171.17 512.24C2161.81 512.24 2152.81 511.76 2144.17 510.8C2135.53 509.84 2127.19 508.46 2119.15 506.66Z" fill="#8D6E4F"/>
<g filter="url(#filter0_d_149_21)">
<rect x="16.5" y="328.5" width="3228" height="230" rx="115" stroke="#8D6E4F" stroke-width="25" shape-rendering="crispEdges"/>
</g>
<defs>
<pattern id="pattern0_149_21" patternContentUnits="objectBoundingBox" width="1" height="1">
<use xlink:href="#image0_149_21" transform="matrix(0.00135318 0 0 0.00296035 0 -0.000299977)"/>
</pattern>
<filter id="filter0_d_149_21" x="0" y="316" width="3261" height="263" filterUnits="userSpaceOnUse" color-interpolation-filters="sRGB">
<feFlood flood-opacity="0" result="BackgroundImageFix"/>
<feColorMatrix in="SourceAlpha" type="matrix" values="0 0 0 0 0 0 0 0 0 0 0 0 0 0 0 0 0 0 127 0" result="hardAlpha"/>
<feOffset dy="4"/>
<feGaussianBlur stdDeviation="2"/>
<feComposite in2="hardAlpha" operator="out"/>
<feColorMatrix type="matrix" values="0 0 0 0 0 0 0 0 0 0 0 0 0 0 0 0 0 0 0.25 0"/>
<feBlend mode="normal" in2="BackgroundImageFix" result="effect1_dropShadow_149_21"/>
<feBlend mode="normal" in="SourceGraphic" in2="effect1_dropShadow_149_21" result="shape"/>
</filter>
</defs>
</svg>
