<svg width="821" height="539" viewBox="0 0 821 539" fill="none" xmlns="http://www.w3.org/2000/svg">
<path d="M728.234 101.479H730.109C730.012 102.377 729.755 103.181 729.338 103.891C728.921 104.6 728.332 105.163 727.57 105.58C726.809 105.99 725.858 106.195 724.719 106.195C723.885 106.195 723.127 106.039 722.443 105.727C721.766 105.414 721.184 104.971 720.695 104.398C720.207 103.819 719.829 103.126 719.562 102.318C719.302 101.505 719.172 100.6 719.172 99.6035V98.1875C719.172 97.1914 719.302 96.2897 719.562 95.4824C719.829 94.6686 720.21 93.972 720.705 93.3926C721.206 92.8132 721.809 92.3672 722.512 92.0547C723.215 91.7422 724.006 91.5859 724.885 91.5859C725.959 91.5859 726.867 91.7878 727.609 92.1914C728.352 92.5951 728.928 93.1549 729.338 93.8711C729.755 94.5807 730.012 95.4043 730.109 96.3418H728.234C728.143 95.6777 727.974 95.1081 727.727 94.6328C727.479 94.151 727.128 93.7799 726.672 93.5195C726.216 93.2591 725.62 93.1289 724.885 93.1289C724.253 93.1289 723.697 93.2493 723.215 93.4902C722.74 93.7311 722.339 94.0729 722.014 94.5156C721.695 94.9583 721.454 95.4889 721.291 96.1074C721.128 96.7259 721.047 97.4128 721.047 98.168V99.6035C721.047 100.3 721.118 100.954 721.262 101.566C721.411 102.178 721.636 102.715 721.936 103.178C722.235 103.64 722.616 104.005 723.078 104.271C723.54 104.532 724.087 104.662 724.719 104.662C725.52 104.662 726.158 104.535 726.633 104.281C727.108 104.027 727.466 103.663 727.707 103.188C727.954 102.712 728.13 102.143 728.234 101.479ZM731.926 100.834V100.609C731.926 99.8477 732.036 99.1413 732.258 98.4902C732.479 97.8327 732.798 97.263 733.215 96.7812C733.632 96.293 734.136 95.9154 734.729 95.6484C735.321 95.375 735.985 95.2383 736.721 95.2383C737.463 95.2383 738.13 95.375 738.723 95.6484C739.322 95.9154 739.829 96.293 740.246 96.7812C740.669 97.263 740.992 97.8327 741.213 98.4902C741.434 99.1413 741.545 99.8477 741.545 100.609V100.834C741.545 101.596 741.434 102.302 741.213 102.953C740.992 103.604 740.669 104.174 740.246 104.662C739.829 105.144 739.325 105.521 738.732 105.795C738.146 106.062 737.482 106.195 736.74 106.195C735.998 106.195 735.331 106.062 734.738 105.795C734.146 105.521 733.638 105.144 733.215 104.662C732.798 104.174 732.479 103.604 732.258 102.953C732.036 102.302 731.926 101.596 731.926 100.834ZM733.732 100.609V100.834C733.732 101.361 733.794 101.859 733.918 102.328C734.042 102.79 734.227 103.201 734.475 103.559C734.729 103.917 735.044 104.2 735.422 104.408C735.799 104.61 736.239 104.711 736.74 104.711C737.235 104.711 737.668 104.61 738.039 104.408C738.417 104.2 738.729 103.917 738.977 103.559C739.224 103.201 739.41 102.79 739.533 102.328C739.663 101.859 739.729 101.361 739.729 100.834V100.609C739.729 100.089 739.663 99.597 739.533 99.1348C739.41 98.666 739.221 98.2526 738.967 97.8945C738.719 97.5299 738.407 97.2435 738.029 97.0352C737.658 96.8268 737.222 96.7227 736.721 96.7227C736.226 96.7227 735.79 96.8268 735.412 97.0352C735.041 97.2435 734.729 97.5299 734.475 97.8945C734.227 98.2526 734.042 98.666 733.918 99.1348C733.794 99.597 733.732 100.089 733.732 100.609ZM745.607 97.5332V106H743.791V95.4336H745.51L745.607 97.5332ZM745.236 100.316L744.396 100.287C744.403 99.5645 744.497 98.8971 744.68 98.2852C744.862 97.6667 745.132 97.1296 745.49 96.6738C745.848 96.2181 746.294 95.8665 746.828 95.6191C747.362 95.3652 747.98 95.2383 748.684 95.2383C749.178 95.2383 749.634 95.3099 750.051 95.4531C750.467 95.5898 750.829 95.8079 751.135 96.1074C751.441 96.4069 751.678 96.791 751.848 97.2598C752.017 97.7285 752.102 98.2949 752.102 98.959V106H750.295V99.0469C750.295 98.4935 750.201 98.0508 750.012 97.7188C749.829 97.3867 749.569 97.1458 749.23 96.9961C748.892 96.8398 748.495 96.7617 748.039 96.7617C747.505 96.7617 747.059 96.8561 746.701 97.0449C746.343 97.2337 746.057 97.4941 745.842 97.8262C745.627 98.1582 745.471 98.5391 745.373 98.9688C745.282 99.3919 745.236 99.8411 745.236 100.316ZM752.082 99.3203L750.871 99.6914C750.878 99.112 750.972 98.5553 751.154 98.0215C751.343 97.4876 751.613 97.0124 751.965 96.5957C752.323 96.179 752.762 95.8503 753.283 95.6094C753.804 95.362 754.4 95.2383 755.07 95.2383C755.637 95.2383 756.138 95.3132 756.574 95.4629C757.017 95.6126 757.388 95.8438 757.688 96.1562C757.993 96.4622 758.225 96.8561 758.381 97.3379C758.537 97.8197 758.615 98.3926 758.615 99.0566V106H756.799V99.0371C756.799 98.4447 756.704 97.9857 756.516 97.6602C756.333 97.3281 756.073 97.097 755.734 96.9668C755.402 96.8301 755.005 96.7617 754.543 96.7617C754.146 96.7617 753.794 96.8301 753.488 96.9668C753.182 97.1035 752.925 97.2923 752.717 97.5332C752.508 97.7676 752.349 98.0378 752.238 98.3438C752.134 98.6497 752.082 98.9753 752.082 99.3203ZM763.146 97.5332V106H761.33V95.4336H763.049L763.146 97.5332ZM762.775 100.316L761.936 100.287C761.942 99.5645 762.036 98.8971 762.219 98.2852C762.401 97.6667 762.671 97.1296 763.029 96.6738C763.387 96.2181 763.833 95.8665 764.367 95.6191C764.901 95.3652 765.52 95.2383 766.223 95.2383C766.717 95.2383 767.173 95.3099 767.59 95.4531C768.007 95.5898 768.368 95.8079 768.674 96.1074C768.98 96.4069 769.217 96.791 769.387 97.2598C769.556 97.7285 769.641 98.2949 769.641 98.959V106H767.834V99.0469C767.834 98.4935 767.74 98.0508 767.551 97.7188C767.368 97.3867 767.108 97.1458 766.77 96.9961C766.431 96.8398 766.034 96.7617 765.578 96.7617C765.044 96.7617 764.598 96.8561 764.24 97.0449C763.882 97.2337 763.596 97.4941 763.381 97.8262C763.166 98.1582 763.01 98.5391 762.912 98.9688C762.821 99.3919 762.775 99.8411 762.775 100.316ZM769.621 99.3203L768.41 99.6914C768.417 99.112 768.511 98.5553 768.693 98.0215C768.882 97.4876 769.152 97.0124 769.504 96.5957C769.862 96.179 770.301 95.8503 770.822 95.6094C771.343 95.362 771.939 95.2383 772.609 95.2383C773.176 95.2383 773.677 95.3132 774.113 95.4629C774.556 95.6126 774.927 95.8438 775.227 96.1562C775.533 96.4622 775.764 96.8561 775.92 97.3379C776.076 97.8197 776.154 98.3926 776.154 99.0566V106H774.338V99.0371C774.338 98.4447 774.243 97.9857 774.055 97.6602C773.872 97.3281 773.612 97.097 773.273 96.9668C772.941 96.8301 772.544 96.7617 772.082 96.7617C771.685 96.7617 771.333 96.8301 771.027 96.9668C770.721 97.1035 770.464 97.2923 770.256 97.5332C770.048 97.7676 769.888 98.0378 769.777 98.3438C769.673 98.6497 769.621 98.9753 769.621 99.3203ZM785.354 103.559V95.4336H787.17V106H785.441L785.354 103.559ZM785.695 101.332L786.447 101.312C786.447 102.016 786.372 102.667 786.223 103.266C786.079 103.858 785.845 104.372 785.52 104.809C785.194 105.245 784.768 105.587 784.24 105.834C783.713 106.075 783.072 106.195 782.316 106.195C781.802 106.195 781.33 106.12 780.9 105.971C780.477 105.821 780.113 105.59 779.807 105.277C779.501 104.965 779.263 104.558 779.094 104.057C778.931 103.555 778.85 102.953 778.85 102.25V95.4336H780.656V102.27C780.656 102.745 780.708 103.139 780.812 103.451C780.923 103.757 781.07 104.001 781.252 104.184C781.441 104.359 781.649 104.483 781.877 104.555C782.111 104.626 782.352 104.662 782.6 104.662C783.368 104.662 783.977 104.516 784.426 104.223C784.875 103.923 785.197 103.523 785.393 103.021C785.594 102.514 785.695 101.951 785.695 101.332ZM791.73 97.6895V106H789.924V95.4336H791.633L791.73 97.6895ZM791.301 100.316L790.549 100.287C790.555 99.5645 790.663 98.8971 790.871 98.2852C791.079 97.6667 791.372 97.1296 791.75 96.6738C792.128 96.2181 792.577 95.8665 793.098 95.6191C793.625 95.3652 794.208 95.2383 794.846 95.2383C795.367 95.2383 795.835 95.3099 796.252 95.4531C796.669 95.5898 797.023 95.8112 797.316 96.1172C797.616 96.4232 797.844 96.8203 798 97.3086C798.156 97.7904 798.234 98.3796 798.234 99.0762V106H796.418V99.0566C796.418 98.5033 796.337 98.0605 796.174 97.7285C796.011 97.39 795.773 97.1458 795.461 96.9961C795.148 96.8398 794.764 96.7617 794.309 96.7617C793.859 96.7617 793.449 96.8561 793.078 97.0449C792.714 97.2337 792.398 97.4941 792.131 97.8262C791.87 98.1582 791.665 98.5391 791.516 98.9688C791.372 99.3919 791.301 99.8411 791.301 100.316ZM802.941 95.4336V106H801.125V95.4336H802.941ZM800.988 92.6309C800.988 92.3379 801.076 92.0905 801.252 91.8887C801.434 91.6868 801.701 91.5859 802.053 91.5859C802.398 91.5859 802.661 91.6868 802.844 91.8887C803.033 92.0905 803.127 92.3379 803.127 92.6309C803.127 92.9108 803.033 93.1517 802.844 93.3535C802.661 93.5488 802.398 93.6465 802.053 93.6465C801.701 93.6465 801.434 93.5488 801.252 93.3535C801.076 93.1517 800.988 92.9108 800.988 92.6309ZM810.266 95.4336V96.8203H804.553V95.4336H810.266ZM806.486 92.8652H808.293V103.383C808.293 103.741 808.348 104.011 808.459 104.193C808.57 104.376 808.713 104.496 808.889 104.555C809.064 104.613 809.253 104.643 809.455 104.643C809.605 104.643 809.761 104.63 809.924 104.604C810.093 104.571 810.22 104.545 810.305 104.525L810.314 106C810.171 106.046 809.982 106.088 809.748 106.127C809.52 106.173 809.243 106.195 808.918 106.195C808.475 106.195 808.068 106.107 807.697 105.932C807.326 105.756 807.03 105.463 806.809 105.053C806.594 104.636 806.486 104.076 806.486 103.373V92.8652ZM815.354 104.906L818.293 95.4336H820.227L815.988 107.631C815.891 107.891 815.76 108.171 815.598 108.471C815.441 108.777 815.24 109.066 814.992 109.34C814.745 109.613 814.445 109.835 814.094 110.004C813.749 110.18 813.335 110.268 812.854 110.268C812.71 110.268 812.528 110.248 812.307 110.209C812.085 110.17 811.929 110.137 811.838 110.111L811.828 108.646C811.88 108.653 811.962 108.66 812.072 108.666C812.189 108.679 812.271 108.686 812.316 108.686C812.727 108.686 813.075 108.63 813.361 108.52C813.648 108.415 813.889 108.236 814.084 107.982C814.286 107.735 814.458 107.393 814.602 106.957L815.354 104.906ZM813.195 95.4336L815.939 103.637L816.408 105.541L815.109 106.205L811.223 95.4336H813.195Z" fill="#333333"/>
<path d="M729.748 53.6279V75H725.529V58.4912L720.461 60.1025V56.7773L729.294 53.6279H729.748ZM751.047 62.4609V66.1523C751.047 67.7539 750.876 69.1357 750.534 70.2979C750.192 71.4502 749.699 72.3975 749.055 73.1396C748.42 73.8721 747.663 74.4141 746.784 74.7656C745.905 75.1172 744.929 75.293 743.854 75.293C742.995 75.293 742.194 75.1855 741.452 74.9707C740.71 74.7461 740.041 74.3994 739.445 73.9307C738.859 73.4619 738.352 72.8711 737.922 72.1582C737.502 71.4355 737.18 70.5762 736.955 69.5801C736.73 68.584 736.618 67.4414 736.618 66.1523V62.4609C736.618 60.8594 736.789 59.4873 737.131 58.3447C737.482 57.1924 737.976 56.25 738.61 55.5176C739.255 54.7852 740.017 54.248 740.896 53.9062C741.774 53.5547 742.751 53.3789 743.825 53.3789C744.685 53.3789 745.48 53.4912 746.213 53.7158C746.955 53.9307 747.624 54.2676 748.22 54.7266C748.815 55.1855 749.323 55.7764 749.743 56.499C750.163 57.2119 750.485 58.0664 750.71 59.0625C750.935 60.0488 751.047 61.1816 751.047 62.4609ZM746.813 66.709V61.8896C746.813 61.1182 746.77 60.4443 746.682 59.8682C746.604 59.292 746.481 58.8037 746.315 58.4033C746.149 57.9932 745.944 57.6611 745.7 57.4072C745.456 57.1533 745.178 56.9678 744.865 56.8506C744.553 56.7334 744.206 56.6748 743.825 56.6748C743.347 56.6748 742.922 56.7676 742.551 56.9531C742.189 57.1387 741.882 57.4365 741.628 57.8467C741.374 58.2471 741.179 58.7842 741.042 59.458C740.915 60.1221 740.852 60.9326 740.852 61.8896V66.709C740.852 67.4805 740.891 68.1592 740.969 68.7451C741.057 69.3311 741.184 69.834 741.35 70.2539C741.525 70.6641 741.73 71.001 741.965 71.2646C742.209 71.5186 742.487 71.7041 742.8 71.8213C743.122 71.9385 743.474 71.9971 743.854 71.9971C744.323 71.9971 744.738 71.9043 745.1 71.7188C745.471 71.5234 745.783 71.2207 746.037 70.8105C746.301 70.3906 746.496 69.8438 746.623 69.1699C746.75 68.4961 746.813 67.6758 746.813 66.709ZM753.859 58.9014V57.7734C753.859 56.9629 754.035 56.2256 754.387 55.5615C754.738 54.8975 755.256 54.3652 755.939 53.9648C756.623 53.5645 757.463 53.3643 758.459 53.3643C759.484 53.3643 760.339 53.5645 761.022 53.9648C761.716 54.3652 762.233 54.8975 762.575 55.5615C762.927 56.2256 763.103 56.9629 763.103 57.7734V58.9014C763.103 59.6924 762.927 60.4199 762.575 61.084C762.233 61.748 761.721 62.2803 761.037 62.6807C760.354 63.0811 759.509 63.2812 758.503 63.2812C757.487 63.2812 756.633 63.0811 755.939 62.6807C755.256 62.2803 754.738 61.748 754.387 61.084C754.035 60.4199 753.859 59.6924 753.859 58.9014ZM756.657 57.7734V58.9014C756.657 59.2432 756.721 59.5703 756.848 59.8828C756.984 60.1855 757.189 60.4346 757.463 60.6299C757.746 60.8154 758.088 60.9082 758.488 60.9082C758.908 60.9082 759.25 60.8154 759.514 60.6299C759.777 60.4346 759.973 60.1855 760.1 59.8828C760.227 59.5703 760.29 59.2432 760.29 58.9014V57.7734C760.29 57.4121 760.222 57.0801 760.085 56.7773C759.958 56.4648 759.758 56.2158 759.484 56.0303C759.221 55.835 758.879 55.7373 758.459 55.7373C758.068 55.7373 757.736 55.835 757.463 56.0303C757.189 56.2158 756.984 56.4648 756.848 56.7773C756.721 57.0801 756.657 57.4121 756.657 57.7734ZM764.055 70.8984V69.7705C764.055 68.9697 764.23 68.2373 764.582 67.5732C764.943 66.9092 765.466 66.377 766.149 65.9766C766.843 65.5762 767.692 65.376 768.698 65.376C769.714 65.376 770.563 65.5762 771.247 65.9766C771.931 66.377 772.448 66.9092 772.8 67.5732C773.151 68.2373 773.327 68.9697 773.327 69.7705V70.8984C773.327 71.6992 773.151 72.4316 772.8 73.0957C772.458 73.7598 771.945 74.292 771.262 74.6924C770.578 75.0928 769.733 75.293 768.728 75.293C767.712 75.293 766.857 75.0928 766.164 74.6924C765.471 74.292 764.943 73.7598 764.582 73.0957C764.23 72.4316 764.055 71.6992 764.055 70.8984ZM766.867 69.7705V70.8984C766.867 71.25 766.945 71.582 767.102 71.8945C767.258 72.207 767.473 72.4561 767.746 72.6416C768.029 72.8271 768.356 72.9199 768.728 72.9199C769.196 72.9199 769.562 72.8271 769.826 72.6416C770.09 72.4561 770.271 72.207 770.368 71.8945C770.476 71.582 770.529 71.25 770.529 70.8984V69.7705C770.529 69.4189 770.461 69.0918 770.324 68.7891C770.188 68.4766 769.982 68.2275 769.709 68.042C769.445 67.8467 769.108 67.749 768.698 67.749C768.288 67.749 767.946 67.8467 767.673 68.042C767.409 68.2275 767.209 68.4766 767.072 68.7891C766.936 69.0918 766.867 69.4189 766.867 69.7705ZM769.738 56.7188L759.323 73.3887L757.272 72.3047L767.688 55.6348L769.738 56.7188Z" fill="#FF703B"/>
<path d="M721.535 454.467H728.273V456H719.65V441.781H721.535V454.467ZM732.092 456H730.285V445.434H732.092V456ZM730.139 442.631C730.139 442.338 730.227 442.09 730.402 441.889C730.585 441.687 730.852 441.586 731.203 441.586C731.555 441.586 731.822 441.687 732.004 441.889C732.186 442.09 732.277 442.338 732.277 442.631C732.277 442.924 732.186 443.168 732.004 443.363C731.822 443.559 731.555 443.656 731.203 443.656C730.852 443.656 730.585 443.559 730.402 443.363C730.227 443.168 730.139 442.924 730.139 442.631ZM734.553 450.629C734.553 448.969 734.934 447.657 735.695 446.693C736.457 445.723 737.479 445.238 738.762 445.238C740.012 445.238 740.998 445.658 741.721 446.498L741.799 445.434H743.459V460.062H741.652V455.023C740.923 455.805 739.953 456.195 738.742 456.195C737.466 456.195 736.447 455.701 735.686 454.711C734.93 453.715 734.553 452.396 734.553 450.756V450.629ZM736.359 450.834C736.359 452.045 736.613 452.995 737.121 453.686C737.635 454.376 738.326 454.721 739.191 454.721C740.266 454.721 741.086 454.245 741.652 453.295V448.119C741.079 447.188 740.266 446.723 739.211 446.723C738.339 446.723 737.645 447.071 737.131 447.768C736.617 448.458 736.359 449.48 736.359 450.834ZM752.883 454.955C752.18 455.782 751.148 456.195 749.787 456.195C748.661 456.195 747.801 455.87 747.209 455.219C746.623 454.561 746.327 453.591 746.32 452.309V445.434H748.127V452.26C748.127 453.861 748.778 454.662 750.08 454.662C751.46 454.662 752.378 454.148 752.834 453.119V445.434H754.641V456H752.922L752.883 454.955ZM759.357 456H757.551V445.434H759.357V456ZM757.404 442.631C757.404 442.338 757.492 442.09 757.668 441.889C757.85 441.687 758.117 441.586 758.469 441.586C758.82 441.586 759.087 441.687 759.27 441.889C759.452 442.09 759.543 442.338 759.543 442.631C759.543 442.924 759.452 443.168 759.27 443.363C759.087 443.559 758.82 443.656 758.469 443.656C758.117 443.656 757.85 443.559 757.668 443.363C757.492 443.168 757.404 442.924 757.404 442.631ZM761.818 450.629C761.818 449.008 762.202 447.706 762.971 446.723C763.739 445.733 764.745 445.238 765.988 445.238C767.225 445.238 768.205 445.661 768.928 446.508V441H770.734V456H769.074L768.986 454.867C768.264 455.753 767.258 456.195 765.969 456.195C764.745 456.195 763.745 455.694 762.971 454.691C762.202 453.689 761.818 452.38 761.818 450.766V450.629ZM763.625 450.834C763.625 452.032 763.872 452.969 764.367 453.646C764.862 454.324 765.546 454.662 766.418 454.662C767.564 454.662 768.4 454.148 768.928 453.119V448.266C768.387 447.27 767.557 446.771 766.438 446.771C765.552 446.771 764.862 447.113 764.367 447.797C763.872 448.48 763.625 449.493 763.625 450.834ZM775.51 456H773.703V445.434H775.51V456ZM773.557 442.631C773.557 442.338 773.645 442.09 773.82 441.889C774.003 441.687 774.27 441.586 774.621 441.586C774.973 441.586 775.24 441.687 775.422 441.889C775.604 442.09 775.695 442.338 775.695 442.631C775.695 442.924 775.604 443.168 775.422 443.363C775.24 443.559 774.973 443.656 774.621 443.656C774.27 443.656 774.003 443.559 773.82 443.363C773.645 443.168 773.557 442.924 773.557 442.631ZM780.861 442.875V445.434H782.834V446.83H780.861V453.383C780.861 453.806 780.949 454.125 781.125 454.34C781.301 454.548 781.6 454.652 782.023 454.652C782.232 454.652 782.518 454.613 782.883 454.535V456C782.408 456.13 781.945 456.195 781.496 456.195C780.689 456.195 780.08 455.951 779.67 455.463C779.26 454.975 779.055 454.281 779.055 453.383V446.83H777.131V445.434H779.055V442.875H780.861ZM788.41 453.354L790.871 445.434H792.805L788.557 457.631C787.899 459.389 786.854 460.268 785.422 460.268L785.08 460.238L784.406 460.111V458.646L784.895 458.686C785.507 458.686 785.982 458.562 786.32 458.314C786.665 458.067 786.949 457.615 787.17 456.957L787.57 455.883L783.801 445.434H785.773L788.41 453.354Z" fill="#333333"/>
<path d="M734.055 421.704V425H719.465V422.188L726.364 414.79C727.058 414.019 727.604 413.34 728.005 412.754C728.405 412.158 728.693 411.626 728.869 411.157C729.055 410.679 729.147 410.225 729.147 409.795C729.147 409.15 729.04 408.599 728.825 408.14C728.61 407.671 728.293 407.31 727.873 407.056C727.463 406.802 726.955 406.675 726.35 406.675C725.705 406.675 725.148 406.831 724.68 407.144C724.221 407.456 723.869 407.891 723.625 408.447C723.391 409.004 723.273 409.634 723.273 410.337H719.04C719.04 409.067 719.343 407.905 719.948 406.851C720.554 405.786 721.408 404.941 722.512 404.316C723.615 403.682 724.924 403.364 726.438 403.364C727.932 403.364 729.191 403.608 730.217 404.097C731.252 404.575 732.033 405.269 732.561 406.177C733.098 407.075 733.366 408.149 733.366 409.399C733.366 410.103 733.254 410.791 733.029 411.465C732.805 412.129 732.482 412.793 732.062 413.457C731.652 414.111 731.154 414.775 730.568 415.449C729.982 416.123 729.333 416.821 728.62 417.544L724.914 421.704H734.055ZM740.661 415.288L737.292 414.482L738.508 403.672H750.49V407.085H741.979L741.452 411.816C741.735 411.65 742.165 411.475 742.741 411.289C743.317 411.094 743.962 410.996 744.675 410.996C745.71 410.996 746.628 411.157 747.429 411.479C748.229 411.802 748.908 412.271 749.465 412.886C750.031 413.501 750.461 414.253 750.754 415.142C751.047 416.03 751.193 417.036 751.193 418.159C751.193 419.106 751.047 420.01 750.754 420.869C750.461 421.719 750.017 422.48 749.421 423.154C748.825 423.818 748.078 424.341 747.18 424.722C746.281 425.103 745.217 425.293 743.986 425.293C743.068 425.293 742.18 425.156 741.32 424.883C740.471 424.609 739.704 424.204 739.021 423.667C738.347 423.13 737.805 422.48 737.395 421.719C736.994 420.947 736.784 420.068 736.765 419.082H740.954C741.013 419.688 741.169 420.21 741.423 420.649C741.687 421.079 742.033 421.411 742.463 421.646C742.893 421.88 743.396 421.997 743.972 421.997C744.509 421.997 744.968 421.895 745.349 421.689C745.729 421.484 746.037 421.201 746.271 420.84C746.506 420.469 746.677 420.039 746.784 419.551C746.901 419.053 746.96 418.516 746.96 417.939C746.96 417.363 746.892 416.841 746.755 416.372C746.618 415.903 746.408 415.498 746.125 415.156C745.842 414.814 745.48 414.551 745.041 414.365C744.611 414.18 744.108 414.087 743.532 414.087C742.751 414.087 742.146 414.209 741.716 414.453C741.296 414.697 740.944 414.976 740.661 415.288ZM753.859 408.901V407.773C753.859 406.963 754.035 406.226 754.387 405.562C754.738 404.897 755.256 404.365 755.939 403.965C756.623 403.564 757.463 403.364 758.459 403.364C759.484 403.364 760.339 403.564 761.022 403.965C761.716 404.365 762.233 404.897 762.575 405.562C762.927 406.226 763.103 406.963 763.103 407.773V408.901C763.103 409.692 762.927 410.42 762.575 411.084C762.233 411.748 761.721 412.28 761.037 412.681C760.354 413.081 759.509 413.281 758.503 413.281C757.487 413.281 756.633 413.081 755.939 412.681C755.256 412.28 754.738 411.748 754.387 411.084C754.035 410.42 753.859 409.692 753.859 408.901ZM756.657 407.773V408.901C756.657 409.243 756.721 409.57 756.848 409.883C756.984 410.186 757.189 410.435 757.463 410.63C757.746 410.815 758.088 410.908 758.488 410.908C758.908 410.908 759.25 410.815 759.514 410.63C759.777 410.435 759.973 410.186 760.1 409.883C760.227 409.57 760.29 409.243 760.29 408.901V407.773C760.29 407.412 760.222 407.08 760.085 406.777C759.958 406.465 759.758 406.216 759.484 406.03C759.221 405.835 758.879 405.737 758.459 405.737C758.068 405.737 757.736 405.835 757.463 406.03C757.189 406.216 756.984 406.465 756.848 406.777C756.721 407.08 756.657 407.412 756.657 407.773ZM764.055 420.898V419.771C764.055 418.97 764.23 418.237 764.582 417.573C764.943 416.909 765.466 416.377 766.149 415.977C766.843 415.576 767.692 415.376 768.698 415.376C769.714 415.376 770.563 415.576 771.247 415.977C771.931 416.377 772.448 416.909 772.8 417.573C773.151 418.237 773.327 418.97 773.327 419.771V420.898C773.327 421.699 773.151 422.432 772.8 423.096C772.458 423.76 771.945 424.292 771.262 424.692C770.578 425.093 769.733 425.293 768.728 425.293C767.712 425.293 766.857 425.093 766.164 424.692C765.471 424.292 764.943 423.76 764.582 423.096C764.23 422.432 764.055 421.699 764.055 420.898ZM766.867 419.771V420.898C766.867 421.25 766.945 421.582 767.102 421.895C767.258 422.207 767.473 422.456 767.746 422.642C768.029 422.827 768.356 422.92 768.728 422.92C769.196 422.92 769.562 422.827 769.826 422.642C770.09 422.456 770.271 422.207 770.368 421.895C770.476 421.582 770.529 421.25 770.529 420.898V419.771C770.529 419.419 770.461 419.092 770.324 418.789C770.188 418.477 769.982 418.228 769.709 418.042C769.445 417.847 769.108 417.749 768.698 417.749C768.288 417.749 767.946 417.847 767.673 418.042C767.409 418.228 767.209 418.477 767.072 418.789C766.936 419.092 766.867 419.419 766.867 419.771ZM769.738 406.719L759.323 423.389L757.272 422.305L767.688 405.635L769.738 406.719Z" fill="#39CEF3"/>
<path d="M31.6836 454.467V456H24.1543V454.467H31.6836ZM24.5352 441.781V456H22.6504V441.781H24.5352ZM30.6875 447.895V449.428H24.1543V447.895H30.6875ZM31.5859 441.781V443.324H24.1543V441.781H31.5859ZM34.9648 445.434L37.2793 449.281L39.623 445.434H41.7422L38.2852 450.648L41.8496 456H39.7598L37.3184 452.035L34.877 456H32.7773L36.332 450.648L32.8848 445.434H34.9648ZM47.6992 454.711C48.1289 454.711 48.526 454.623 48.8906 454.447C49.2552 454.271 49.5547 454.031 49.7891 453.725C50.0234 453.412 50.1569 453.057 50.1895 452.66H51.9082C51.8757 453.285 51.6641 453.868 51.2734 454.408C50.8893 454.942 50.3848 455.375 49.7598 455.707C49.1348 456.033 48.4479 456.195 47.6992 456.195C46.9049 456.195 46.2116 456.055 45.6191 455.775C45.0332 455.495 44.5449 455.111 44.1543 454.623C43.7702 454.135 43.4805 453.575 43.2852 452.943C43.0964 452.305 43.002 451.632 43.002 450.922V450.512C43.002 449.802 43.0964 449.132 43.2852 448.5C43.4805 447.862 43.7702 447.299 44.1543 446.811C44.5449 446.322 45.0332 445.938 45.6191 445.658C46.2116 445.378 46.9049 445.238 47.6992 445.238C48.526 445.238 49.2487 445.408 49.8672 445.746C50.4857 446.078 50.9707 446.534 51.3223 447.113C51.6803 447.686 51.8757 448.337 51.9082 449.066H50.1895C50.1569 448.63 50.0332 448.236 49.8184 447.885C49.61 447.533 49.3236 447.253 48.959 447.045C48.6009 446.83 48.181 446.723 47.6992 446.723C47.1458 446.723 46.6803 446.833 46.3027 447.055C45.9316 447.27 45.6354 447.562 45.4141 447.934C45.1992 448.298 45.043 448.705 44.9453 449.154C44.8542 449.597 44.8086 450.049 44.8086 450.512V450.922C44.8086 451.384 44.8542 451.84 44.9453 452.289C45.0365 452.738 45.1895 453.145 45.4043 453.51C45.6257 453.874 45.9219 454.167 46.293 454.389C46.6706 454.604 47.1393 454.711 47.6992 454.711ZM55.7461 441V456H53.9395V441H55.7461ZM55.3164 450.316L54.5645 450.287C54.571 449.564 54.6784 448.897 54.8867 448.285C55.0951 447.667 55.388 447.13 55.7656 446.674C56.1432 446.218 56.5924 445.867 57.1133 445.619C57.6406 445.365 58.2233 445.238 58.8613 445.238C59.3822 445.238 59.8509 445.31 60.2676 445.453C60.6842 445.59 61.0391 445.811 61.332 446.117C61.6315 446.423 61.8594 446.82 62.0156 447.309C62.1719 447.79 62.25 448.38 62.25 449.076V456H60.4336V449.057C60.4336 448.503 60.3522 448.061 60.1895 447.729C60.0267 447.39 59.7891 447.146 59.4766 446.996C59.1641 446.84 58.7799 446.762 58.3242 446.762C57.875 446.762 57.4648 446.856 57.0938 447.045C56.7292 447.234 56.4134 447.494 56.1465 447.826C55.8861 448.158 55.681 448.539 55.5312 448.969C55.388 449.392 55.3164 449.841 55.3164 450.316ZM71.1855 454.193V448.754C71.1855 448.337 71.1009 447.976 70.9316 447.67C70.7689 447.357 70.5215 447.117 70.1895 446.947C69.8574 446.778 69.4473 446.693 68.959 446.693C68.5033 446.693 68.1029 446.771 67.7578 446.928C67.4193 447.084 67.1523 447.289 66.957 447.543C66.7682 447.797 66.6738 448.07 66.6738 448.363H64.8672C64.8672 447.986 64.9648 447.611 65.1602 447.24C65.3555 446.869 65.6354 446.534 66 446.234C66.3711 445.928 66.8138 445.688 67.3281 445.512C67.849 445.329 68.4284 445.238 69.0664 445.238C69.8346 445.238 70.5117 445.368 71.0977 445.629C71.6901 445.889 72.1523 446.283 72.4844 446.811C72.8229 447.331 72.9922 447.986 72.9922 448.773V453.695C72.9922 454.047 73.0215 454.421 73.0801 454.818C73.1452 455.215 73.2396 455.557 73.3633 455.844V456H71.4785C71.3874 455.792 71.3158 455.515 71.2637 455.17C71.2116 454.818 71.1855 454.493 71.1855 454.193ZM71.498 449.594L71.5176 450.863H69.6914C69.1771 450.863 68.7181 450.906 68.3145 450.99C67.9108 451.068 67.5723 451.189 67.2988 451.352C67.0254 451.514 66.8171 451.719 66.6738 451.967C66.5306 452.208 66.459 452.491 66.459 452.816C66.459 453.148 66.5339 453.451 66.6836 453.725C66.8333 453.998 67.0579 454.216 67.3574 454.379C67.6634 454.535 68.0378 454.613 68.4805 454.613C69.0339 454.613 69.5221 454.496 69.9453 454.262C70.3685 454.027 70.7038 453.741 70.9512 453.402C71.2051 453.064 71.3418 452.735 71.3613 452.416L72.1328 453.285C72.0872 453.559 71.9635 453.861 71.7617 454.193C71.5599 454.525 71.2897 454.844 70.9512 455.15C70.6191 455.45 70.222 455.701 69.7598 455.902C69.304 456.098 68.7897 456.195 68.2168 456.195C67.5007 456.195 66.8724 456.055 66.332 455.775C65.7982 455.495 65.3815 455.121 65.082 454.652C64.7891 454.177 64.6426 453.646 64.6426 453.061C64.6426 452.494 64.7533 451.996 64.9746 451.566C65.196 451.13 65.515 450.769 65.9316 450.482C66.3483 450.189 66.8496 449.968 67.4355 449.818C68.0215 449.669 68.6758 449.594 69.3984 449.594H71.498ZM77.6406 447.689V456H75.834V445.434H77.543L77.6406 447.689ZM77.2109 450.316L76.459 450.287C76.4655 449.564 76.5729 448.897 76.7812 448.285C76.9896 447.667 77.2826 447.13 77.6602 446.674C78.0378 446.218 78.487 445.867 79.0078 445.619C79.5352 445.365 80.1178 445.238 80.7559 445.238C81.2767 445.238 81.7454 445.31 82.1621 445.453C82.5788 445.59 82.9336 445.811 83.2266 446.117C83.526 446.423 83.7539 446.82 83.9102 447.309C84.0664 447.79 84.1445 448.38 84.1445 449.076V456H82.3281V449.057C82.3281 448.503 82.2467 448.061 82.084 447.729C81.9212 447.39 81.6836 447.146 81.3711 446.996C81.0586 446.84 80.6745 446.762 80.2188 446.762C79.7695 446.762 79.3594 446.856 78.9883 447.045C78.6237 447.234 78.3079 447.494 78.041 447.826C77.7806 448.158 77.5755 448.539 77.4258 448.969C77.2826 449.392 77.2109 449.841 77.2109 450.316ZM93.7344 445.434H95.375V455.775C95.375 456.706 95.1862 457.501 94.8086 458.158C94.431 458.816 93.9036 459.314 93.2266 459.652C92.556 459.997 91.7812 460.17 90.9023 460.17C90.5378 460.17 90.1081 460.111 89.6133 459.994C89.125 459.883 88.6432 459.691 88.168 459.418C87.6992 459.151 87.3053 458.79 86.9863 458.334L87.9336 457.26C88.3763 457.794 88.8385 458.165 89.3203 458.373C89.8086 458.581 90.2904 458.686 90.7656 458.686C91.3385 458.686 91.8333 458.578 92.25 458.363C92.6667 458.148 92.9889 457.829 93.2168 457.406C93.4512 456.99 93.5684 456.475 93.5684 455.863V447.758L93.7344 445.434ZM86.459 450.834V450.629C86.459 449.822 86.5534 449.089 86.7422 448.432C86.9375 447.768 87.2142 447.198 87.5723 446.723C87.9368 446.247 88.3763 445.883 88.8906 445.629C89.4049 445.368 89.9844 445.238 90.6289 445.238C91.293 445.238 91.8724 445.355 92.3672 445.59C92.8685 445.818 93.2917 446.153 93.6367 446.596C93.9883 447.032 94.265 447.559 94.4668 448.178C94.6686 448.796 94.8086 449.496 94.8867 450.277V451.176C94.8151 451.951 94.6751 452.647 94.4668 453.266C94.265 453.884 93.9883 454.411 93.6367 454.848C93.2917 455.284 92.8685 455.619 92.3672 455.854C91.8659 456.081 91.2799 456.195 90.6094 456.195C89.9779 456.195 89.4049 456.062 88.8906 455.795C88.3828 455.528 87.9466 455.154 87.582 454.672C87.2174 454.19 86.9375 453.624 86.7422 452.973C86.5534 452.315 86.459 451.602 86.459 450.834ZM88.2656 450.629V450.834C88.2656 451.361 88.3177 451.856 88.4219 452.318C88.5326 452.781 88.6986 453.188 88.9199 453.539C89.1478 453.891 89.4375 454.167 89.7891 454.369C90.1406 454.564 90.5605 454.662 91.0488 454.662C91.6478 454.662 92.1426 454.535 92.5332 454.281C92.9238 454.027 93.2331 453.692 93.4609 453.275C93.6953 452.859 93.8776 452.406 94.0078 451.918V449.564C93.9362 449.206 93.8255 448.861 93.6758 448.529C93.5326 448.191 93.3438 447.891 93.1094 447.631C92.8815 447.364 92.5983 447.152 92.2598 446.996C91.9212 446.84 91.5241 446.762 91.0684 446.762C90.5736 446.762 90.1471 446.866 89.7891 447.074C89.4375 447.276 89.1478 447.556 88.9199 447.914C88.6986 448.266 88.5326 448.676 88.4219 449.145C88.3177 449.607 88.2656 450.102 88.2656 450.629ZM102.504 456.195C101.768 456.195 101.101 456.072 100.502 455.824C99.9095 455.57 99.3984 455.215 98.9688 454.76C98.5456 454.304 98.2201 453.764 97.9922 453.139C97.7643 452.514 97.6504 451.83 97.6504 451.088V450.678C97.6504 449.818 97.7773 449.053 98.0312 448.383C98.2852 447.706 98.6302 447.133 99.0664 446.664C99.5026 446.195 99.9974 445.84 100.551 445.6C101.104 445.359 101.677 445.238 102.27 445.238C103.025 445.238 103.676 445.368 104.223 445.629C104.776 445.889 105.229 446.254 105.58 446.723C105.932 447.185 106.192 447.732 106.361 448.363C106.531 448.988 106.615 449.672 106.615 450.414V451.225H98.7246V449.75H104.809V449.613C104.783 449.145 104.685 448.689 104.516 448.246C104.353 447.803 104.092 447.439 103.734 447.152C103.376 446.866 102.888 446.723 102.27 446.723C101.859 446.723 101.482 446.811 101.137 446.986C100.792 447.156 100.495 447.41 100.248 447.748C100.001 448.087 99.8086 448.5 99.6719 448.988C99.5352 449.477 99.4668 450.04 99.4668 450.678V451.088C99.4668 451.589 99.5352 452.061 99.6719 452.504C99.8151 452.94 100.02 453.324 100.287 453.656C100.561 453.988 100.889 454.249 101.273 454.438C101.664 454.626 102.107 454.721 102.602 454.721C103.24 454.721 103.78 454.59 104.223 454.33C104.665 454.07 105.053 453.721 105.385 453.285L106.479 454.154C106.251 454.499 105.961 454.828 105.609 455.141C105.258 455.453 104.825 455.707 104.311 455.902C103.803 456.098 103.201 456.195 102.504 456.195ZM122.582 454.467V456H115.473V454.467H122.582ZM115.844 441.781V456H113.959V441.781H115.844ZM126.43 445.434V456H124.613V445.434H126.43ZM124.477 442.631C124.477 442.338 124.564 442.09 124.74 441.889C124.923 441.687 125.189 441.586 125.541 441.586C125.886 441.586 126.15 441.687 126.332 441.889C126.521 442.09 126.615 442.338 126.615 442.631C126.615 442.911 126.521 443.152 126.332 443.354C126.15 443.549 125.886 443.646 125.541 443.646C125.189 443.646 124.923 443.549 124.74 443.354C124.564 443.152 124.477 442.911 124.477 442.631ZM135.482 453.197C135.482 452.937 135.424 452.696 135.307 452.475C135.196 452.247 134.965 452.042 134.613 451.859C134.268 451.671 133.747 451.508 133.051 451.371C132.465 451.247 131.934 451.101 131.459 450.932C130.99 450.762 130.59 450.557 130.258 450.316C129.932 450.076 129.682 449.792 129.506 449.467C129.33 449.141 129.242 448.76 129.242 448.324C129.242 447.908 129.333 447.514 129.516 447.143C129.704 446.771 129.968 446.443 130.307 446.156C130.652 445.87 131.065 445.645 131.547 445.482C132.029 445.32 132.566 445.238 133.158 445.238C134.005 445.238 134.727 445.388 135.326 445.688C135.925 445.987 136.384 446.387 136.703 446.889C137.022 447.383 137.182 447.934 137.182 448.539H135.375C135.375 448.246 135.287 447.963 135.111 447.689C134.942 447.41 134.691 447.178 134.359 446.996C134.034 446.814 133.633 446.723 133.158 446.723C132.657 446.723 132.25 446.801 131.938 446.957C131.632 447.107 131.407 447.299 131.264 447.533C131.127 447.768 131.059 448.015 131.059 448.275C131.059 448.471 131.091 448.646 131.156 448.803C131.228 448.952 131.352 449.092 131.527 449.223C131.703 449.346 131.951 449.464 132.27 449.574C132.589 449.685 132.995 449.796 133.49 449.906C134.356 450.102 135.069 450.336 135.629 450.609C136.189 450.883 136.605 451.218 136.879 451.615C137.152 452.012 137.289 452.494 137.289 453.061C137.289 453.523 137.191 453.946 136.996 454.33C136.807 454.714 136.531 455.046 136.166 455.326C135.808 455.6 135.378 455.814 134.877 455.971C134.382 456.12 133.826 456.195 133.207 456.195C132.276 456.195 131.488 456.029 130.844 455.697C130.199 455.365 129.711 454.936 129.379 454.408C129.047 453.881 128.881 453.324 128.881 452.738H130.697C130.723 453.233 130.867 453.627 131.127 453.92C131.387 454.206 131.706 454.411 132.084 454.535C132.462 454.652 132.836 454.711 133.207 454.711C133.702 454.711 134.115 454.646 134.447 454.516C134.786 454.385 135.043 454.206 135.219 453.979C135.395 453.751 135.482 453.49 135.482 453.197ZM144.086 445.434V446.82H138.373V445.434H144.086ZM140.307 442.865H142.113V453.383C142.113 453.741 142.169 454.011 142.279 454.193C142.39 454.376 142.533 454.496 142.709 454.555C142.885 454.613 143.074 454.643 143.275 454.643C143.425 454.643 143.581 454.63 143.744 454.604C143.913 454.571 144.04 454.545 144.125 454.525L144.135 456C143.992 456.046 143.803 456.088 143.568 456.127C143.34 456.173 143.064 456.195 142.738 456.195C142.296 456.195 141.889 456.107 141.518 455.932C141.146 455.756 140.85 455.463 140.629 455.053C140.414 454.636 140.307 454.076 140.307 453.373V442.865ZM148.168 445.434V456H146.352V445.434H148.168ZM146.215 442.631C146.215 442.338 146.303 442.09 146.479 441.889C146.661 441.687 146.928 441.586 147.279 441.586C147.624 441.586 147.888 441.687 148.07 441.889C148.259 442.09 148.354 442.338 148.354 442.631C148.354 442.911 148.259 443.152 148.07 443.354C147.888 443.549 147.624 443.646 147.279 443.646C146.928 443.646 146.661 443.549 146.479 443.354C146.303 443.152 146.215 442.911 146.215 442.631ZM152.875 447.689V456H151.068V445.434H152.777L152.875 447.689ZM152.445 450.316L151.693 450.287C151.7 449.564 151.807 448.897 152.016 448.285C152.224 447.667 152.517 447.13 152.895 446.674C153.272 446.218 153.721 445.867 154.242 445.619C154.77 445.365 155.352 445.238 155.99 445.238C156.511 445.238 156.98 445.31 157.396 445.453C157.813 445.59 158.168 445.811 158.461 446.117C158.76 446.423 158.988 446.82 159.145 447.309C159.301 447.79 159.379 448.38 159.379 449.076V456H157.562V449.057C157.562 448.503 157.481 448.061 157.318 447.729C157.156 447.39 156.918 447.146 156.605 446.996C156.293 446.84 155.909 446.762 155.453 446.762C155.004 446.762 154.594 446.856 154.223 447.045C153.858 447.234 153.542 447.494 153.275 447.826C153.015 448.158 152.81 448.539 152.66 448.969C152.517 449.392 152.445 449.841 152.445 450.316ZM168.969 445.434H170.609V455.775C170.609 456.706 170.421 457.501 170.043 458.158C169.665 458.816 169.138 459.314 168.461 459.652C167.79 459.997 167.016 460.17 166.137 460.17C165.772 460.17 165.342 460.111 164.848 459.994C164.359 459.883 163.878 459.691 163.402 459.418C162.934 459.151 162.54 458.79 162.221 458.334L163.168 457.26C163.611 457.794 164.073 458.165 164.555 458.373C165.043 458.581 165.525 458.686 166 458.686C166.573 458.686 167.068 458.578 167.484 458.363C167.901 458.148 168.223 457.829 168.451 457.406C168.686 456.99 168.803 456.475 168.803 455.863V447.758L168.969 445.434ZM161.693 450.834V450.629C161.693 449.822 161.788 449.089 161.977 448.432C162.172 447.768 162.449 447.198 162.807 446.723C163.171 446.247 163.611 445.883 164.125 445.629C164.639 445.368 165.219 445.238 165.863 445.238C166.527 445.238 167.107 445.355 167.602 445.59C168.103 445.818 168.526 446.153 168.871 446.596C169.223 447.032 169.499 447.559 169.701 448.178C169.903 448.796 170.043 449.496 170.121 450.277V451.176C170.049 451.951 169.91 452.647 169.701 453.266C169.499 453.884 169.223 454.411 168.871 454.848C168.526 455.284 168.103 455.619 167.602 455.854C167.1 456.081 166.514 456.195 165.844 456.195C165.212 456.195 164.639 456.062 164.125 455.795C163.617 455.528 163.181 455.154 162.816 454.672C162.452 454.19 162.172 453.624 161.977 452.973C161.788 452.315 161.693 451.602 161.693 450.834ZM163.5 450.629V450.834C163.5 451.361 163.552 451.856 163.656 452.318C163.767 452.781 163.933 453.188 164.154 453.539C164.382 453.891 164.672 454.167 165.023 454.369C165.375 454.564 165.795 454.662 166.283 454.662C166.882 454.662 167.377 454.535 167.768 454.281C168.158 454.027 168.467 453.692 168.695 453.275C168.93 452.859 169.112 452.406 169.242 451.918V449.564C169.171 449.206 169.06 448.861 168.91 448.529C168.767 448.191 168.578 447.891 168.344 447.631C168.116 447.364 167.833 447.152 167.494 446.996C167.156 446.84 166.758 446.762 166.303 446.762C165.808 446.762 165.382 446.866 165.023 447.074C164.672 447.276 164.382 447.556 164.154 447.914C163.933 448.266 163.767 448.676 163.656 449.145C163.552 449.607 163.5 450.102 163.5 450.629Z" fill="#333333"/>
<path d="M26.7861 412.505H29.042C29.7646 412.505 30.3604 412.383 30.8291 412.139C31.2979 411.885 31.6445 411.533 31.8691 411.084C32.1035 410.625 32.2207 410.093 32.2207 409.487C32.2207 408.94 32.1133 408.457 31.8984 408.037C31.6934 407.607 31.376 407.275 30.9463 407.041C30.5166 406.797 29.9746 406.675 29.3203 406.675C28.8027 406.675 28.3242 406.777 27.8848 406.982C27.4453 407.188 27.0938 407.476 26.8301 407.847C26.5664 408.218 26.4346 408.667 26.4346 409.194H22.2012C22.2012 408.022 22.5137 407.002 23.1387 406.133C23.7734 405.264 24.623 404.585 25.6875 404.097C26.752 403.608 27.9238 403.364 29.2031 403.364C30.6484 403.364 31.9131 403.599 32.9971 404.067C34.0811 404.526 34.9258 405.205 35.5312 406.104C36.1367 407.002 36.4395 408.115 36.4395 409.443C36.4395 410.117 36.2832 410.771 35.9707 411.406C35.6582 412.031 35.209 412.598 34.623 413.105C34.0469 413.604 33.3438 414.004 32.5137 414.307C31.6836 414.6 30.751 414.746 29.7158 414.746H26.7861V412.505ZM26.7861 415.713V413.53H29.7158C30.8779 413.53 31.8984 413.662 32.7773 413.926C33.6562 414.189 34.3936 414.57 34.9893 415.068C35.585 415.557 36.0342 416.138 36.3369 416.812C36.6396 417.476 36.791 418.213 36.791 419.023C36.791 420.02 36.6006 420.908 36.2197 421.689C35.8389 422.461 35.3018 423.115 34.6084 423.652C33.9248 424.189 33.124 424.6 32.2061 424.883C31.2881 425.156 30.2871 425.293 29.2031 425.293C28.3047 425.293 27.4209 425.171 26.5518 424.927C25.6924 424.673 24.9111 424.297 24.208 423.799C23.5146 423.291 22.958 422.656 22.5381 421.895C22.1279 421.123 21.9229 420.21 21.9229 419.155H26.1562C26.1562 419.702 26.293 420.19 26.5664 420.62C26.8398 421.05 27.2158 421.387 27.6943 421.631C28.1826 421.875 28.7246 421.997 29.3203 421.997C29.9941 421.997 30.5703 421.875 31.0488 421.631C31.5371 421.377 31.9082 421.025 32.1621 420.576C32.4258 420.117 32.5576 419.585 32.5576 418.979C32.5576 418.198 32.416 417.573 32.1328 417.104C31.8496 416.626 31.4443 416.274 30.917 416.05C30.3896 415.825 29.7646 415.713 29.042 415.713H26.7861ZM54.0469 412.461V416.152C54.0469 417.754 53.876 419.136 53.5342 420.298C53.1924 421.45 52.6992 422.397 52.0547 423.14C51.4199 423.872 50.6631 424.414 49.7842 424.766C48.9053 425.117 47.9287 425.293 46.8545 425.293C45.9951 425.293 45.1943 425.186 44.4521 424.971C43.71 424.746 43.041 424.399 42.4453 423.931C41.8594 423.462 41.3516 422.871 40.9219 422.158C40.502 421.436 40.1797 420.576 39.9551 419.58C39.7305 418.584 39.6182 417.441 39.6182 416.152V412.461C39.6182 410.859 39.7891 409.487 40.1309 408.345C40.4824 407.192 40.9756 406.25 41.6104 405.518C42.2549 404.785 43.0166 404.248 43.8955 403.906C44.7744 403.555 45.751 403.379 46.8252 403.379C47.6846 403.379 48.4805 403.491 49.2129 403.716C49.9551 403.931 50.624 404.268 51.2197 404.727C51.8154 405.186 52.3232 405.776 52.7432 406.499C53.1631 407.212 53.4854 408.066 53.71 409.062C53.9346 410.049 54.0469 411.182 54.0469 412.461ZM49.8135 416.709V411.89C49.8135 411.118 49.7695 410.444 49.6816 409.868C49.6035 409.292 49.4814 408.804 49.3154 408.403C49.1494 407.993 48.9443 407.661 48.7002 407.407C48.4561 407.153 48.1777 406.968 47.8652 406.851C47.5527 406.733 47.2061 406.675 46.8252 406.675C46.3467 406.675 45.9219 406.768 45.5508 406.953C45.1895 407.139 44.8818 407.437 44.6279 407.847C44.374 408.247 44.1787 408.784 44.042 409.458C43.915 410.122 43.8516 410.933 43.8516 411.89V416.709C43.8516 417.48 43.8906 418.159 43.9688 418.745C44.0566 419.331 44.1836 419.834 44.3496 420.254C44.5254 420.664 44.7305 421.001 44.9648 421.265C45.209 421.519 45.4873 421.704 45.7998 421.821C46.1221 421.938 46.4736 421.997 46.8545 421.997C47.3232 421.997 47.7383 421.904 48.0996 421.719C48.4707 421.523 48.7832 421.221 49.0371 420.811C49.3008 420.391 49.4961 419.844 49.623 419.17C49.75 418.496 49.8135 417.676 49.8135 416.709ZM56.8594 408.901V407.773C56.8594 406.963 57.0352 406.226 57.3867 405.562C57.7383 404.897 58.2559 404.365 58.9395 403.965C59.623 403.564 60.4629 403.364 61.459 403.364C62.4844 403.364 63.3389 403.564 64.0225 403.965C64.7158 404.365 65.2334 404.897 65.5752 405.562C65.9268 406.226 66.1025 406.963 66.1025 407.773V408.901C66.1025 409.692 65.9268 410.42 65.5752 411.084C65.2334 411.748 64.7207 412.28 64.0371 412.681C63.3535 413.081 62.5088 413.281 61.5029 413.281C60.4873 413.281 59.6328 413.081 58.9395 412.681C58.2559 412.28 57.7383 411.748 57.3867 411.084C57.0352 410.42 56.8594 409.692 56.8594 408.901ZM59.6572 407.773V408.901C59.6572 409.243 59.7207 409.57 59.8477 409.883C59.9844 410.186 60.1895 410.435 60.4629 410.63C60.7461 410.815 61.0879 410.908 61.4883 410.908C61.9082 410.908 62.25 410.815 62.5137 410.63C62.7773 410.435 62.9727 410.186 63.0996 409.883C63.2266 409.57 63.29 409.243 63.29 408.901V407.773C63.29 407.412 63.2217 407.08 63.085 406.777C62.958 406.465 62.7578 406.216 62.4844 406.03C62.2207 405.835 61.8789 405.737 61.459 405.737C61.0684 405.737 60.7363 405.835 60.4629 406.03C60.1895 406.216 59.9844 406.465 59.8477 406.777C59.7207 407.08 59.6572 407.412 59.6572 407.773ZM67.0547 420.898V419.771C67.0547 418.97 67.2305 418.237 67.582 417.573C67.9434 416.909 68.4658 416.377 69.1494 415.977C69.8428 415.576 70.6924 415.376 71.6982 415.376C72.7139 415.376 73.5635 415.576 74.2471 415.977C74.9307 416.377 75.4482 416.909 75.7998 417.573C76.1514 418.237 76.3271 418.97 76.3271 419.771V420.898C76.3271 421.699 76.1514 422.432 75.7998 423.096C75.458 423.76 74.9453 424.292 74.2617 424.692C73.5781 425.093 72.7334 425.293 71.7275 425.293C70.7119 425.293 69.8574 425.093 69.1641 424.692C68.4707 424.292 67.9434 423.76 67.582 423.096C67.2305 422.432 67.0547 421.699 67.0547 420.898ZM69.8672 419.771V420.898C69.8672 421.25 69.9453 421.582 70.1016 421.895C70.2578 422.207 70.4727 422.456 70.7461 422.642C71.0293 422.827 71.3564 422.92 71.7275 422.92C72.1963 422.92 72.5625 422.827 72.8262 422.642C73.0898 422.456 73.2705 422.207 73.3682 421.895C73.4756 421.582 73.5293 421.25 73.5293 420.898V419.771C73.5293 419.419 73.4609 419.092 73.3242 418.789C73.1875 418.477 72.9824 418.228 72.709 418.042C72.4453 417.847 72.1084 417.749 71.6982 417.749C71.2881 417.749 70.9463 417.847 70.6729 418.042C70.4092 418.228 70.209 418.477 70.0723 418.789C69.9355 419.092 69.8672 419.419 69.8672 419.771ZM72.7383 406.719L62.3232 423.389L60.2725 422.305L70.6875 405.635L72.7383 406.719Z" fill="#39CEF3"/>
<path d="M11.5879 244.781V259H9.69336L2.53516 248.033V259H0.650391V244.781H2.53516L9.72266 255.777V244.781H11.5879ZM16.8125 244.781V259H14.9277V244.781H16.8125ZM22.7695 251.178V252.721H16.4023V251.178H22.7695ZM23.7363 244.781V246.324H16.4023V244.781H23.7363ZM31.4316 244.781V259H29.5762V244.781H31.4316ZM36.002 244.781V246.324H25.0156V244.781H36.002ZM43.2773 244.781H45.1035L49.7617 256.373L54.4102 244.781H56.2461L50.4648 259H49.0391L43.2773 244.781ZM42.6816 244.781H44.293L44.5566 253.453V259H42.6816V244.781ZM55.2207 244.781H56.832V259H54.957V253.453L55.2207 244.781ZM66.0996 257.193V251.754C66.0996 251.337 66.015 250.976 65.8457 250.67C65.6829 250.357 65.4355 250.117 65.1035 249.947C64.7715 249.778 64.3613 249.693 63.873 249.693C63.4173 249.693 63.0169 249.771 62.6719 249.928C62.3333 250.084 62.0664 250.289 61.8711 250.543C61.6823 250.797 61.5879 251.07 61.5879 251.363H59.7812C59.7812 250.986 59.8789 250.611 60.0742 250.24C60.2695 249.869 60.5495 249.534 60.9141 249.234C61.2852 248.928 61.7279 248.688 62.2422 248.512C62.763 248.329 63.3424 248.238 63.9805 248.238C64.7487 248.238 65.4258 248.368 66.0117 248.629C66.6042 248.889 67.0664 249.283 67.3984 249.811C67.737 250.331 67.9062 250.986 67.9062 251.773V256.695C67.9062 257.047 67.9355 257.421 67.9941 257.818C68.0592 258.215 68.1536 258.557 68.2773 258.844V259H66.3926C66.3014 258.792 66.2298 258.515 66.1777 258.17C66.1257 257.818 66.0996 257.493 66.0996 257.193ZM66.4121 252.594L66.4316 253.863H64.6055C64.0911 253.863 63.6322 253.906 63.2285 253.99C62.8249 254.068 62.4863 254.189 62.2129 254.352C61.9395 254.514 61.7311 254.719 61.5879 254.967C61.4447 255.208 61.373 255.491 61.373 255.816C61.373 256.148 61.4479 256.451 61.5977 256.725C61.7474 256.998 61.972 257.216 62.2715 257.379C62.5775 257.535 62.9518 257.613 63.3945 257.613C63.9479 257.613 64.4362 257.496 64.8594 257.262C65.2826 257.027 65.6178 256.741 65.8652 256.402C66.1191 256.064 66.2559 255.735 66.2754 255.416L67.0469 256.285C67.0013 256.559 66.8776 256.861 66.6758 257.193C66.474 257.525 66.2038 257.844 65.8652 258.15C65.5332 258.45 65.1361 258.701 64.6738 258.902C64.2181 259.098 63.7038 259.195 63.1309 259.195C62.4147 259.195 61.7865 259.055 61.2461 258.775C60.7122 258.495 60.2956 258.121 59.9961 257.652C59.7031 257.177 59.5566 256.646 59.5566 256.061C59.5566 255.494 59.6673 254.996 59.8887 254.566C60.11 254.13 60.429 253.769 60.8457 253.482C61.2624 253.189 61.7637 252.968 62.3496 252.818C62.9355 252.669 63.5898 252.594 64.3125 252.594H66.4121ZM72.5547 250.094V259H70.748V248.434H72.5059L72.5547 250.094ZM75.8555 248.375L75.8457 250.055C75.696 250.022 75.5527 250.003 75.416 249.996C75.2858 249.983 75.1361 249.977 74.9668 249.977C74.5501 249.977 74.1823 250.042 73.8633 250.172C73.5443 250.302 73.2741 250.484 73.0527 250.719C72.8314 250.953 72.6556 251.233 72.5254 251.559C72.4017 251.878 72.3203 252.229 72.2812 252.613L71.7734 252.906C71.7734 252.268 71.8353 251.669 71.959 251.109C72.0892 250.549 72.2878 250.055 72.5547 249.625C72.8216 249.189 73.1602 248.85 73.5703 248.609C73.987 248.362 74.4818 248.238 75.0547 248.238C75.1849 248.238 75.3346 248.255 75.5039 248.287C75.6732 248.313 75.7904 248.342 75.8555 248.375ZM79.3418 244V259H77.5254V244H79.3418ZM85.7969 248.434L81.1875 253.365L78.6094 256.041L78.4629 254.117L80.3086 251.91L83.5898 248.434H85.7969ZM84.1465 259L80.377 253.961L81.3145 252.35L86.2754 259H84.1465ZM91.8516 259.195C91.1159 259.195 90.4486 259.072 89.8496 258.824C89.2572 258.57 88.7461 258.215 88.3164 257.76C87.8932 257.304 87.5677 256.764 87.3398 256.139C87.112 255.514 86.998 254.83 86.998 254.088V253.678C86.998 252.818 87.125 252.053 87.3789 251.383C87.6328 250.706 87.9779 250.133 88.4141 249.664C88.8503 249.195 89.3451 248.84 89.8984 248.6C90.4518 248.359 91.0247 248.238 91.6172 248.238C92.3724 248.238 93.0234 248.368 93.5703 248.629C94.1237 248.889 94.5762 249.254 94.9277 249.723C95.2793 250.185 95.5397 250.732 95.709 251.363C95.8783 251.988 95.9629 252.672 95.9629 253.414V254.225H88.0723V252.75H94.1562V252.613C94.1302 252.145 94.0326 251.689 93.8633 251.246C93.7005 250.803 93.4401 250.439 93.082 250.152C92.724 249.866 92.2357 249.723 91.6172 249.723C91.207 249.723 90.8294 249.811 90.4844 249.986C90.1393 250.156 89.8431 250.41 89.5957 250.748C89.3483 251.087 89.1562 251.5 89.0195 251.988C88.8828 252.477 88.8145 253.04 88.8145 253.678V254.088C88.8145 254.589 88.8828 255.061 89.0195 255.504C89.1628 255.94 89.3678 256.324 89.6348 256.656C89.9082 256.988 90.237 257.249 90.6211 257.438C91.0117 257.626 91.4544 257.721 91.9492 257.721C92.5872 257.721 93.1276 257.59 93.5703 257.33C94.013 257.07 94.4004 256.721 94.7324 256.285L95.8262 257.154C95.5983 257.499 95.3086 257.828 94.957 258.141C94.6055 258.453 94.1725 258.707 93.6582 258.902C93.1504 259.098 92.5482 259.195 91.8516 259.195ZM102.496 248.434V249.82H96.7832V248.434H102.496ZM98.7168 245.865H100.523V256.383C100.523 256.741 100.579 257.011 100.689 257.193C100.8 257.376 100.943 257.496 101.119 257.555C101.295 257.613 101.484 257.643 101.686 257.643C101.835 257.643 101.992 257.63 102.154 257.604C102.324 257.571 102.451 257.545 102.535 257.525L102.545 259C102.402 259.046 102.213 259.088 101.979 259.127C101.751 259.173 101.474 259.195 101.148 259.195C100.706 259.195 100.299 259.107 99.9277 258.932C99.5566 258.756 99.2604 258.463 99.0391 258.053C98.8242 257.636 98.7168 257.076 98.7168 256.373V245.865ZM111.383 250.465V263.062H109.566V248.434H111.227L111.383 250.465ZM118.502 253.629V253.834C118.502 254.602 118.411 255.315 118.229 255.973C118.046 256.624 117.779 257.19 117.428 257.672C117.083 258.154 116.656 258.528 116.148 258.795C115.641 259.062 115.058 259.195 114.4 259.195C113.73 259.195 113.137 259.085 112.623 258.863C112.109 258.642 111.673 258.32 111.314 257.896C110.956 257.473 110.67 256.965 110.455 256.373C110.247 255.781 110.104 255.113 110.025 254.371V253.277C110.104 252.496 110.25 251.796 110.465 251.178C110.68 250.559 110.963 250.032 111.314 249.596C111.673 249.153 112.105 248.818 112.613 248.59C113.121 248.355 113.707 248.238 114.371 248.238C115.035 248.238 115.624 248.368 116.139 248.629C116.653 248.883 117.086 249.247 117.438 249.723C117.789 250.198 118.053 250.768 118.229 251.432C118.411 252.089 118.502 252.822 118.502 253.629ZM116.686 253.834V253.629C116.686 253.102 116.63 252.607 116.52 252.145C116.409 251.676 116.236 251.266 116.002 250.914C115.774 250.556 115.481 250.276 115.123 250.074C114.765 249.866 114.339 249.762 113.844 249.762C113.388 249.762 112.991 249.84 112.652 249.996C112.32 250.152 112.037 250.364 111.803 250.631C111.568 250.891 111.376 251.191 111.227 251.529C111.083 251.861 110.976 252.206 110.904 252.564V255.094C111.035 255.549 111.217 255.979 111.451 256.383C111.686 256.78 111.998 257.102 112.389 257.35C112.779 257.59 113.271 257.711 113.863 257.711C114.352 257.711 114.771 257.61 115.123 257.408C115.481 257.2 115.774 256.917 116.002 256.559C116.236 256.201 116.409 255.79 116.52 255.328C116.63 254.859 116.686 254.361 116.686 253.834ZM122.77 244V259H120.953V244H122.77ZM131.9 257.193V251.754C131.9 251.337 131.816 250.976 131.646 250.67C131.484 250.357 131.236 250.117 130.904 249.947C130.572 249.778 130.162 249.693 129.674 249.693C129.218 249.693 128.818 249.771 128.473 249.928C128.134 250.084 127.867 250.289 127.672 250.543C127.483 250.797 127.389 251.07 127.389 251.363H125.582C125.582 250.986 125.68 250.611 125.875 250.24C126.07 249.869 126.35 249.534 126.715 249.234C127.086 248.928 127.529 248.688 128.043 248.512C128.564 248.329 129.143 248.238 129.781 248.238C130.549 248.238 131.227 248.368 131.812 248.629C132.405 248.889 132.867 249.283 133.199 249.811C133.538 250.331 133.707 250.986 133.707 251.773V256.695C133.707 257.047 133.736 257.421 133.795 257.818C133.86 258.215 133.954 258.557 134.078 258.844V259H132.193C132.102 258.792 132.031 258.515 131.979 258.17C131.926 257.818 131.9 257.493 131.9 257.193ZM132.213 252.594L132.232 253.863H130.406C129.892 253.863 129.433 253.906 129.029 253.99C128.626 254.068 128.287 254.189 128.014 254.352C127.74 254.514 127.532 254.719 127.389 254.967C127.245 255.208 127.174 255.491 127.174 255.816C127.174 256.148 127.249 256.451 127.398 256.725C127.548 256.998 127.773 257.216 128.072 257.379C128.378 257.535 128.753 257.613 129.195 257.613C129.749 257.613 130.237 257.496 130.66 257.262C131.083 257.027 131.419 256.741 131.666 256.402C131.92 256.064 132.057 255.735 132.076 255.416L132.848 256.285C132.802 256.559 132.678 256.861 132.477 257.193C132.275 257.525 132.005 257.844 131.666 258.15C131.334 258.45 130.937 258.701 130.475 258.902C130.019 259.098 129.505 259.195 128.932 259.195C128.215 259.195 127.587 259.055 127.047 258.775C126.513 258.495 126.096 258.121 125.797 257.652C125.504 257.177 125.357 256.646 125.357 256.061C125.357 255.494 125.468 254.996 125.689 254.566C125.911 254.13 126.23 253.769 126.646 253.482C127.063 253.189 127.564 252.968 128.15 252.818C128.736 252.669 129.391 252.594 130.113 252.594H132.213ZM140.777 257.711C141.207 257.711 141.604 257.623 141.969 257.447C142.333 257.271 142.633 257.031 142.867 256.725C143.102 256.412 143.235 256.057 143.268 255.66H144.986C144.954 256.285 144.742 256.868 144.352 257.408C143.967 257.942 143.463 258.375 142.838 258.707C142.213 259.033 141.526 259.195 140.777 259.195C139.983 259.195 139.29 259.055 138.697 258.775C138.111 258.495 137.623 258.111 137.232 257.623C136.848 257.135 136.559 256.575 136.363 255.943C136.174 255.305 136.08 254.632 136.08 253.922V253.512C136.08 252.802 136.174 252.132 136.363 251.5C136.559 250.862 136.848 250.299 137.232 249.811C137.623 249.322 138.111 248.938 138.697 248.658C139.29 248.378 139.983 248.238 140.777 248.238C141.604 248.238 142.327 248.408 142.945 248.746C143.564 249.078 144.049 249.534 144.4 250.113C144.758 250.686 144.954 251.337 144.986 252.066H143.268C143.235 251.63 143.111 251.236 142.896 250.885C142.688 250.533 142.402 250.253 142.037 250.045C141.679 249.83 141.259 249.723 140.777 249.723C140.224 249.723 139.758 249.833 139.381 250.055C139.01 250.27 138.714 250.562 138.492 250.934C138.277 251.298 138.121 251.705 138.023 252.154C137.932 252.597 137.887 253.049 137.887 253.512V253.922C137.887 254.384 137.932 254.84 138.023 255.289C138.115 255.738 138.268 256.145 138.482 256.51C138.704 256.874 139 257.167 139.371 257.389C139.749 257.604 140.217 257.711 140.777 257.711ZM151.402 259.195C150.667 259.195 149.999 259.072 149.4 258.824C148.808 258.57 148.297 258.215 147.867 257.76C147.444 257.304 147.118 256.764 146.891 256.139C146.663 255.514 146.549 254.83 146.549 254.088V253.678C146.549 252.818 146.676 252.053 146.93 251.383C147.184 250.706 147.529 250.133 147.965 249.664C148.401 249.195 148.896 248.84 149.449 248.6C150.003 248.359 150.576 248.238 151.168 248.238C151.923 248.238 152.574 248.368 153.121 248.629C153.674 248.889 154.127 249.254 154.479 249.723C154.83 250.185 155.09 250.732 155.26 251.363C155.429 251.988 155.514 252.672 155.514 253.414V254.225H147.623V252.75H153.707V252.613C153.681 252.145 153.583 251.689 153.414 251.246C153.251 250.803 152.991 250.439 152.633 250.152C152.275 249.866 151.786 249.723 151.168 249.723C150.758 249.723 150.38 249.811 150.035 249.986C149.69 250.156 149.394 250.41 149.146 250.748C148.899 251.087 148.707 251.5 148.57 251.988C148.434 252.477 148.365 253.04 148.365 253.678V254.088C148.365 254.589 148.434 255.061 148.57 255.504C148.714 255.94 148.919 256.324 149.186 256.656C149.459 256.988 149.788 257.249 150.172 257.438C150.562 257.626 151.005 257.721 151.5 257.721C152.138 257.721 152.678 257.59 153.121 257.33C153.564 257.07 153.951 256.721 154.283 256.285L155.377 257.154C155.149 257.499 154.859 257.828 154.508 258.141C154.156 258.453 153.723 258.707 153.209 258.902C152.701 259.098 152.099 259.195 151.402 259.195Z" fill="#333333"/>
<path d="M32.748 210.628V232H28.5293V215.491L23.4609 217.103V213.777L32.2939 210.628H32.748ZM43.6611 222.288L40.292 221.482L41.5078 210.672H53.4902V214.085H44.9795L44.4521 218.816C44.7354 218.65 45.165 218.475 45.7412 218.289C46.3174 218.094 46.9619 217.996 47.6748 217.996C48.71 217.996 49.6279 218.157 50.4287 218.479C51.2295 218.802 51.9082 219.271 52.4648 219.886C53.0312 220.501 53.4609 221.253 53.7539 222.142C54.0469 223.03 54.1934 224.036 54.1934 225.159C54.1934 226.106 54.0469 227.01 53.7539 227.869C53.4609 228.719 53.0166 229.48 52.4209 230.154C51.8252 230.818 51.0781 231.341 50.1797 231.722C49.2812 232.103 48.2168 232.293 46.9863 232.293C46.0684 232.293 45.1797 232.156 44.3203 231.883C43.4707 231.609 42.7041 231.204 42.0205 230.667C41.3467 230.13 40.8047 229.48 40.3945 228.719C39.9941 227.947 39.7842 227.068 39.7646 226.082H43.9541C44.0127 226.688 44.1689 227.21 44.4229 227.649C44.6865 228.079 45.0332 228.411 45.4629 228.646C45.8926 228.88 46.3955 228.997 46.9717 228.997C47.5088 228.997 47.9678 228.895 48.3486 228.689C48.7295 228.484 49.0371 228.201 49.2715 227.84C49.5059 227.469 49.6768 227.039 49.7842 226.551C49.9014 226.053 49.96 225.516 49.96 224.939C49.96 224.363 49.8916 223.841 49.7549 223.372C49.6182 222.903 49.4082 222.498 49.125 222.156C48.8418 221.814 48.4805 221.551 48.041 221.365C47.6113 221.18 47.1084 221.087 46.5322 221.087C45.751 221.087 45.1455 221.209 44.7158 221.453C44.2959 221.697 43.9443 221.976 43.6611 222.288ZM56.8594 215.901V214.773C56.8594 213.963 57.0352 213.226 57.3867 212.562C57.7383 211.897 58.2559 211.365 58.9395 210.965C59.623 210.564 60.4629 210.364 61.459 210.364C62.4844 210.364 63.3389 210.564 64.0225 210.965C64.7158 211.365 65.2334 211.897 65.5752 212.562C65.9268 213.226 66.1025 213.963 66.1025 214.773V215.901C66.1025 216.692 65.9268 217.42 65.5752 218.084C65.2334 218.748 64.7207 219.28 64.0371 219.681C63.3535 220.081 62.5088 220.281 61.5029 220.281C60.4873 220.281 59.6328 220.081 58.9395 219.681C58.2559 219.28 57.7383 218.748 57.3867 218.084C57.0352 217.42 56.8594 216.692 56.8594 215.901ZM59.6572 214.773V215.901C59.6572 216.243 59.7207 216.57 59.8477 216.883C59.9844 217.186 60.1895 217.435 60.4629 217.63C60.7461 217.815 61.0879 217.908 61.4883 217.908C61.9082 217.908 62.25 217.815 62.5137 217.63C62.7773 217.435 62.9727 217.186 63.0996 216.883C63.2266 216.57 63.29 216.243 63.29 215.901V214.773C63.29 214.412 63.2217 214.08 63.085 213.777C62.958 213.465 62.7578 213.216 62.4844 213.03C62.2207 212.835 61.8789 212.737 61.459 212.737C61.0684 212.737 60.7363 212.835 60.4629 213.03C60.1895 213.216 59.9844 213.465 59.8477 213.777C59.7207 214.08 59.6572 214.412 59.6572 214.773ZM67.0547 227.898V226.771C67.0547 225.97 67.2305 225.237 67.582 224.573C67.9434 223.909 68.4658 223.377 69.1494 222.977C69.8428 222.576 70.6924 222.376 71.6982 222.376C72.7139 222.376 73.5635 222.576 74.2471 222.977C74.9307 223.377 75.4482 223.909 75.7998 224.573C76.1514 225.237 76.3271 225.97 76.3271 226.771V227.898C76.3271 228.699 76.1514 229.432 75.7998 230.096C75.458 230.76 74.9453 231.292 74.2617 231.692C73.5781 232.093 72.7334 232.293 71.7275 232.293C70.7119 232.293 69.8574 232.093 69.1641 231.692C68.4707 231.292 67.9434 230.76 67.582 230.096C67.2305 229.432 67.0547 228.699 67.0547 227.898ZM69.8672 226.771V227.898C69.8672 228.25 69.9453 228.582 70.1016 228.895C70.2578 229.207 70.4727 229.456 70.7461 229.642C71.0293 229.827 71.3564 229.92 71.7275 229.92C72.1963 229.92 72.5625 229.827 72.8262 229.642C73.0898 229.456 73.2705 229.207 73.3682 228.895C73.4756 228.582 73.5293 228.25 73.5293 227.898V226.771C73.5293 226.419 73.4609 226.092 73.3242 225.789C73.1875 225.477 72.9824 225.228 72.709 225.042C72.4453 224.847 72.1084 224.749 71.6982 224.749C71.2881 224.749 70.9463 224.847 70.6729 225.042C70.4092 225.228 70.209 225.477 70.0723 225.789C69.9355 226.092 69.8672 226.419 69.8672 226.771ZM72.7383 213.719L62.3232 230.389L60.2725 229.305L70.6875 212.635L72.7383 213.719Z" fill="#39CEF3"/>
<path d="M32.4746 93.3242H27.9043V106H26.0391V93.3242H21.4785V91.7812H32.4746V93.3242ZM37.709 106.195C36.2767 106.195 35.1113 105.727 34.2129 104.789C33.3145 103.845 32.8652 102.585 32.8652 101.01V100.678C32.8652 99.6296 33.0638 98.6953 33.4609 97.875C33.8646 97.0482 34.4245 96.4036 35.1406 95.9414C35.8633 95.4727 36.6445 95.2383 37.4844 95.2383C38.8581 95.2383 39.9258 95.6908 40.6875 96.5957C41.4492 97.5007 41.8301 98.7962 41.8301 100.482V101.234H34.6719C34.6979 102.276 35.0007 103.119 35.5801 103.764C36.166 104.402 36.9082 104.721 37.8066 104.721C38.4447 104.721 38.985 104.59 39.4277 104.33C39.8704 104.07 40.2578 103.725 40.5898 103.295L41.6934 104.154C40.8079 105.515 39.4798 106.195 37.709 106.195ZM37.4844 96.7227C36.7552 96.7227 36.1432 96.9896 35.6484 97.5234C35.1536 98.0508 34.8477 98.793 34.7305 99.75H40.0234V99.6133C39.9714 98.6953 39.724 97.9857 39.2812 97.4844C38.8385 96.9766 38.2396 96.7227 37.4844 96.7227ZM50.4531 106C50.349 105.792 50.2643 105.421 50.1992 104.887C49.3594 105.759 48.3568 106.195 47.1914 106.195C46.1497 106.195 45.2936 105.902 44.623 105.316C43.959 104.724 43.627 103.975 43.627 103.07C43.627 101.97 44.0436 101.117 44.877 100.512C45.7168 99.8997 46.8952 99.5938 48.4121 99.5938H50.1699V98.7637C50.1699 98.1322 49.9811 97.6309 49.6035 97.2598C49.2259 96.8822 48.6693 96.6934 47.9336 96.6934C47.2891 96.6934 46.7487 96.8561 46.3125 97.1816C45.8763 97.5072 45.6582 97.901 45.6582 98.3633H43.8418C43.8418 97.8359 44.0273 97.3281 44.3984 96.8398C44.776 96.3451 45.2839 95.9544 45.9219 95.668C46.5664 95.3815 47.2728 95.2383 48.041 95.2383C49.2585 95.2383 50.2122 95.5443 50.9023 96.1562C51.5924 96.7617 51.9505 97.5983 51.9766 98.666V103.529C51.9766 104.499 52.1003 105.271 52.3477 105.844V106H50.4531ZM47.4551 104.623C48.0215 104.623 48.5586 104.477 49.0664 104.184C49.5742 103.891 49.9421 103.51 50.1699 103.041V100.873H48.7539C46.5404 100.873 45.4336 101.521 45.4336 102.816C45.4336 103.383 45.6224 103.826 46 104.145C46.3776 104.464 46.8626 104.623 47.4551 104.623ZM56.5078 95.4336L56.5566 96.6055C57.3314 95.694 58.3763 95.2383 59.6914 95.2383C61.1693 95.2383 62.1751 95.8047 62.709 96.9375C63.0605 96.4297 63.5163 96.0195 64.0762 95.707C64.6426 95.3945 65.3099 95.2383 66.0781 95.2383C68.3958 95.2383 69.5742 96.4655 69.6133 98.9199V106H67.8066V99.0273C67.8066 98.2721 67.6341 97.709 67.2891 97.3379C66.944 96.9603 66.3646 96.7715 65.5508 96.7715C64.8802 96.7715 64.3236 96.9733 63.8809 97.377C63.4382 97.7741 63.181 98.3112 63.1094 98.9883V106H61.293V99.0762C61.293 97.5397 60.541 96.7715 59.0371 96.7715C57.8522 96.7715 57.0417 97.276 56.6055 98.2852V106H54.7988V95.4336H56.5078Z" fill="#333333"/>
<path d="M37.0547 71.7041V75H22.4648V72.1875L29.3643 64.79C30.0576 64.0186 30.6045 63.3398 31.0049 62.7539C31.4053 62.1582 31.6934 61.626 31.8691 61.1572C32.0547 60.6787 32.1475 60.2246 32.1475 59.7949C32.1475 59.1504 32.04 58.5986 31.8252 58.1396C31.6104 57.6709 31.293 57.3096 30.873 57.0557C30.4629 56.8018 29.9551 56.6748 29.3496 56.6748C28.7051 56.6748 28.1484 56.8311 27.6797 57.1436C27.2207 57.4561 26.8691 57.8906 26.625 58.4473C26.3906 59.0039 26.2734 59.6338 26.2734 60.3369H22.04C22.04 59.0674 22.3428 57.9053 22.9482 56.8506C23.5537 55.7861 24.4082 54.9414 25.5117 54.3164C26.6152 53.6816 27.9238 53.3643 29.4375 53.3643C30.9316 53.3643 32.1914 53.6084 33.2168 54.0967C34.252 54.5752 35.0332 55.2686 35.5605 56.1768C36.0977 57.0752 36.3662 58.1494 36.3662 59.3994C36.3662 60.1025 36.2539 60.791 36.0293 61.4648C35.8047 62.1289 35.4824 62.793 35.0625 63.457C34.6523 64.1113 34.1543 64.7754 33.5684 65.4492C32.9824 66.123 32.333 66.8213 31.6201 67.5439L27.9141 71.7041H37.0547ZM54.0469 62.4609V66.1523C54.0469 67.7539 53.876 69.1357 53.5342 70.2979C53.1924 71.4502 52.6992 72.3975 52.0547 73.1396C51.4199 73.8721 50.6631 74.4141 49.7842 74.7656C48.9053 75.1172 47.9287 75.293 46.8545 75.293C45.9951 75.293 45.1943 75.1855 44.4521 74.9707C43.71 74.7461 43.041 74.3994 42.4453 73.9307C41.8594 73.4619 41.3516 72.8711 40.9219 72.1582C40.502 71.4355 40.1797 70.5762 39.9551 69.5801C39.7305 68.584 39.6182 67.4414 39.6182 66.1523V62.4609C39.6182 60.8594 39.7891 59.4873 40.1309 58.3447C40.4824 57.1924 40.9756 56.25 41.6104 55.5176C42.2549 54.7852 43.0166 54.248 43.8955 53.9062C44.7744 53.5547 45.751 53.3789 46.8252 53.3789C47.6846 53.3789 48.4805 53.4912 49.2129 53.7158C49.9551 53.9307 50.624 54.2676 51.2197 54.7266C51.8154 55.1855 52.3232 55.7764 52.7432 56.499C53.1631 57.2119 53.4854 58.0664 53.71 59.0625C53.9346 60.0488 54.0469 61.1816 54.0469 62.4609ZM49.8135 66.709V61.8896C49.8135 61.1182 49.7695 60.4443 49.6816 59.8682C49.6035 59.292 49.4814 58.8037 49.3154 58.4033C49.1494 57.9932 48.9443 57.6611 48.7002 57.4072C48.4561 57.1533 48.1777 56.9678 47.8652 56.8506C47.5527 56.7334 47.2061 56.6748 46.8252 56.6748C46.3467 56.6748 45.9219 56.7676 45.5508 56.9531C45.1895 57.1387 44.8818 57.4365 44.6279 57.8467C44.374 58.2471 44.1787 58.7842 44.042 59.458C43.915 60.1221 43.8516 60.9326 43.8516 61.8896V66.709C43.8516 67.4805 43.8906 68.1592 43.9688 68.7451C44.0566 69.3311 44.1836 69.834 44.3496 70.2539C44.5254 70.6641 44.7305 71.001 44.9648 71.2646C45.209 71.5186 45.4873 71.7041 45.7998 71.8213C46.1221 71.9385 46.4736 71.9971 46.8545 71.9971C47.3232 71.9971 47.7383 71.9043 48.0996 71.7188C48.4707 71.5234 48.7832 71.2207 49.0371 70.8105C49.3008 70.3906 49.4961 69.8438 49.623 69.1699C49.75 68.4961 49.8135 67.6758 49.8135 66.709ZM56.8594 58.9014V57.7734C56.8594 56.9629 57.0352 56.2256 57.3867 55.5615C57.7383 54.8975 58.2559 54.3652 58.9395 53.9648C59.623 53.5645 60.4629 53.3643 61.459 53.3643C62.4844 53.3643 63.3389 53.5645 64.0225 53.9648C64.7158 54.3652 65.2334 54.8975 65.5752 55.5615C65.9268 56.2256 66.1025 56.9629 66.1025 57.7734V58.9014C66.1025 59.6924 65.9268 60.4199 65.5752 61.084C65.2334 61.748 64.7207 62.2803 64.0371 62.6807C63.3535 63.0811 62.5088 63.2812 61.5029 63.2812C60.4873 63.2812 59.6328 63.0811 58.9395 62.6807C58.2559 62.2803 57.7383 61.748 57.3867 61.084C57.0352 60.4199 56.8594 59.6924 56.8594 58.9014ZM59.6572 57.7734V58.9014C59.6572 59.2432 59.7207 59.5703 59.8477 59.8828C59.9844 60.1855 60.1895 60.4346 60.4629 60.6299C60.7461 60.8154 61.0879 60.9082 61.4883 60.9082C61.9082 60.9082 62.25 60.8154 62.5137 60.6299C62.7773 60.4346 62.9727 60.1855 63.0996 59.8828C63.2266 59.5703 63.29 59.2432 63.29 58.9014V57.7734C63.29 57.4121 63.2217 57.0801 63.085 56.7773C62.958 56.4648 62.7578 56.2158 62.4844 56.0303C62.2207 55.835 61.8789 55.7373 61.459 55.7373C61.0684 55.7373 60.7363 55.835 60.4629 56.0303C60.1895 56.2158 59.9844 56.4648 59.8477 56.7773C59.7207 57.0801 59.6572 57.4121 59.6572 57.7734ZM67.0547 70.8984V69.7705C67.0547 68.9697 67.2305 68.2373 67.582 67.5732C67.9434 66.9092 68.4658 66.377 69.1494 65.9766C69.8428 65.5762 70.6924 65.376 71.6982 65.376C72.7139 65.376 73.5635 65.5762 74.2471 65.9766C74.9307 66.377 75.4482 66.9092 75.7998 67.5732C76.1514 68.2373 76.3271 68.9697 76.3271 69.7705V70.8984C76.3271 71.6992 76.1514 72.4316 75.7998 73.0957C75.458 73.7598 74.9453 74.292 74.2617 74.6924C73.5781 75.0928 72.7334 75.293 71.7275 75.293C70.7119 75.293 69.8574 75.0928 69.1641 74.6924C68.4707 74.292 67.9434 73.7598 67.582 73.0957C67.2305 72.4316 67.0547 71.6992 67.0547 70.8984ZM69.8672 69.7705V70.8984C69.8672 71.25 69.9453 71.582 70.1016 71.8945C70.2578 72.207 70.4727 72.4561 70.7461 72.6416C71.0293 72.8271 71.3564 72.9199 71.7275 72.9199C72.1963 72.9199 72.5625 72.8271 72.8262 72.6416C73.0898 72.4561 73.2705 72.207 73.3682 71.8945C73.4756 71.582 73.5293 71.25 73.5293 70.8984V69.7705C73.5293 69.4189 73.4609 69.0918 73.3242 68.7891C73.1875 68.4766 72.9824 68.2275 72.709 68.042C72.4453 67.8467 72.1084 67.749 71.6982 67.749C71.2881 67.749 70.9463 67.8467 70.6729 68.042C70.4092 68.2275 70.209 68.4766 70.0723 68.7891C69.9355 69.0918 69.8672 69.4189 69.8672 69.7705ZM72.7383 56.7188L62.3232 73.3887L60.2725 72.3047L70.6875 55.6348L72.7383 56.7188Z" fill="#9AD960"/>
<g filter="url(#filter0_d_202_2)">
<circle cx="399.5" cy="265.5" r="219.5" fill="#8D6E4F" fill-opacity="0.5" shape-rendering="crispEdges"/>
</g>
<path d="M578 266C589.046 266 598.105 257.023 596.991 246.034C594.582 222.268 587.886 199.076 577.172 177.603C563.474 150.149 543.584 126.253 519.07 107.803C494.556 89.352 466.09 76.8506 435.917 71.285C412.318 66.9317 388.179 66.9148 364.674 71.1767C353.806 73.1474 347.686 84.3367 350.743 94.9511L364 140.988C367.057 151.602 378.158 157.532 389.15 156.443C399.4 155.428 409.776 155.853 419.971 157.734C436.747 160.829 452.575 167.78 466.206 178.039C479.836 188.298 490.895 201.584 498.512 216.849C503.14 226.125 506.42 235.978 508.281 246.11C510.276 256.974 519.047 266 530.093 266H578Z" fill="url(#paint0_linear_202_2)"/>
<path d="M339.714 98.5199C335.973 88.127 324.458 82.6439 314.495 87.4139C292.595 97.8996 272.807 112.327 256.125 129.971C248.536 137.997 250.235 150.637 258.985 157.378L296.938 186.613C305.689 193.353 318.145 191.554 326.356 184.165C331.969 179.114 338.086 174.654 344.612 170.855C354.158 165.298 359.681 153.989 355.939 143.596L339.714 98.5199Z" fill="url(#paint1_linear_202_2)"/>
<path d="M252.322 166.626C243.158 160.459 230.631 162.85 225.42 172.589C214.954 192.147 207.828 213.369 204.382 235.378C200.937 257.387 201.238 279.771 205.225 301.592C207.211 312.458 218.408 318.562 229.019 315.491L275.037 302.171C285.647 299.1 291.562 287.991 290.458 277C289.523 267.69 289.777 258.272 291.232 248.973C292.688 239.675 295.325 230.63 299.06 222.051C303.47 211.923 301.233 199.538 292.069 193.372L252.322 166.626Z" fill="#7977EF"/>
<path d="M232.599 326.505C222.211 330.26 216.743 341.782 221.526 351.738C235.621 381.078 256.783 406.591 283.236 425.907C309.69 445.223 340.434 457.613 372.673 462.105C383.613 463.63 392.923 454.913 393.336 443.875L395.13 396.001C395.543 384.963 386.851 375.861 376.07 373.46C361.343 370.181 347.376 363.893 335.077 354.912C322.777 345.931 312.535 334.541 304.928 321.513C299.358 311.974 288.042 306.466 277.654 310.221L232.599 326.505Z" fill="#F34439"/>
<path d="M404.332 443.947C404.601 454.99 413.797 463.828 424.756 462.447C467.329 457.083 507.212 437.994 538.199 407.792C569.186 377.591 589.292 338.21 595.747 295.789C597.408 284.869 588.809 275.449 577.778 274.897L529.93 272.503C518.898 271.95 509.688 280.528 507.151 291.278C502.377 311.518 491.929 330.135 476.842 344.84C461.755 359.544 442.876 369.511 422.52 373.765C411.708 376.024 402.897 385.012 403.166 396.054L404.332 443.947Z" fill="white"/>
<path d="M98 74.5H222.5L274.5 103.5" stroke="#CDCDCD" stroke-width="2" stroke-dasharray="2 2"/>
<path d="M700.5 74.5H576L524 103.5" stroke="#CDCDCD" stroke-width="2" stroke-dasharray="2 2"/>
<path d="M700.5 434H599L548.5 407.5" stroke="#CDCDCD" stroke-width="2" stroke-dasharray="2 2"/>
<path d="M98 434H194.5L250.5 411" stroke="#CDCDCD" stroke-width="2" stroke-dasharray="2 2"/>
<path d="M98 233H151L196.5 233" stroke="#CDCDCD" stroke-width="2" stroke-dasharray="2 2"/>
<defs>
<filter id="filter0_d_202_2" x="130" y="0" width="539" height="539" filterUnits="userSpaceOnUse" color-interpolation-filters="sRGB">
<feFlood flood-opacity="0" result="BackgroundImageFix"/>
<feColorMatrix in="SourceAlpha" type="matrix" values="0 0 0 0 0 0 0 0 0 0 0 0 0 0 0 0 0 0 127 0" result="hardAlpha"/>
<feOffset dy="4"/>
<feGaussianBlur stdDeviation="25"/>
<feComposite in2="hardAlpha" operator="out"/>
<feColorMatrix type="matrix" values="0 0 0 0 0 0 0 0 0 0 0 0 0 0 0 0 0 0 0.08 0"/>
<feBlend mode="normal" in2="BackgroundImageFix" result="effect1_dropShadow_202_2"/>
<feBlend mode="normal" in="SourceGraphic" in2="effect1_dropShadow_202_2" result="shape"/>
</filter>
<linearGradient id="paint0_linear_202_2" x1="537.625" y1="68.0409" x2="202.016" y2="395.526" gradientUnits="userSpaceOnUse">
<stop stop-color="white"/>
<stop offset="0.515519" stop-color="#0D0C0C"/>
<stop offset="1" stop-color="#28C09C"/>
</linearGradient>
<linearGradient id="paint1_linear_202_2" x1="400" y1="68" x2="400" y2="464" gradientUnits="userSpaceOnUse">
<stop stop-color="#EBFBF3"/>
<stop offset="1" stop-color="#72CA3D"/>
</linearGradient>
</defs>
</svg>
